<svg id="visual" viewBox="0 0 900 600" width="900" height="600" xmlns="http://www.w3.org/2000/svg" xmlns:xlink="http://www.w3.org/1999/xlink" version="1.1"><rect x="0" y="0" width="900" height="600" fill="#10294c"></rect><defs><linearGradient id="grad1_0" x1="33.3%" y1="0%" x2="100%" y2="100%"><stop offset="20%" stop-color="#44afe0" stop-opacity="1"></stop><stop offset="80%" stop-color="#44afe0" stop-opacity="1"></stop></linearGradient></defs><defs><linearGradient id="grad1_1" x1="33.3%" y1="0%" x2="100%" y2="100%"><stop offset="20%" stop-color="#44afe0" stop-opacity="1"></stop><stop offset="80%" stop-color="#10294c" stop-opacity="1"></stop></linearGradient></defs><defs><linearGradient id="grad2_0" x1="0%" y1="0%" x2="66.7%" y2="100%"><stop offset="20%" stop-color="#44afe0" stop-opacity="1"></stop><stop offset="80%" stop-color="#44afe0" stop-opacity="1"></stop></linearGradient></defs><defs><linearGradient id="grad2_1" x1="0%" y1="0%" x2="66.7%" y2="100%"><stop offset="20%" stop-color="#10294c" stop-opacity="1"></stop><stop offset="80%" stop-color="#44afe0" stop-opacity="1"></stop></linearGradient></defs><g transform="translate(900, 0)"><path d="M0 405.6C-57.3 404.3 -114.6 403 -155.2 374.7C-195.9 346.5 -219.9 291.4 -250.3 250.3C-280.8 209.2 -317.6 182.1 -344.6 142.7C-371.6 103.4 -388.6 51.7 -405.6 0L0 0Z" fill="#2c6895"></path><path d="M0 202.8C-28.6 202.1 -57.3 201.5 -77.6 187.4C-97.9 173.3 -109.9 145.7 -125.2 125.2C-140.4 104.6 -158.8 91.1 -172.3 71.4C-185.8 51.7 -194.3 25.8 -202.8 0L0 0Z" fill="#44afe0"></path></g><g transform="translate(0, 600)"><path d="M0 -405.6C50.7 -384.8 101.5 -363.9 138.9 -335.4C176.3 -306.8 200.5 -270.7 242.5 -242.5C284.6 -214.4 344.6 -194.3 374.7 -155.2C404.9 -116.1 405.3 -58.1 405.6 0L0 0Z" fill="#2c6895"></path><path d="M0 -202.8C25.4 -192.4 50.7 -181.9 69.5 -167.7C88.2 -153.4 100.2 -135.3 121.3 -121.3C142.3 -107.2 172.3 -97.2 187.4 -77.6C202.5 -58.1 202.6 -29 202.8 0L0 0Z" fill="#44afe0"></path></g></svg>