<svg id="visual" viewBox="0 0 1600 540" width="1600" height="540" xmlns="http://www.w3.org/2000/svg" xmlns:xlink="http://www.w3.org/1999/xlink" version="1.1"><rect x="0" y="0" width="1600" height="540" fill="#10294c"></rect><path d="M0 162L38.2 164.5C76.3 167 152.7 172 228.8 167.5C305 163 381 149 457.2 153.3C533.3 157.7 609.7 180.3 685.8 184.3C762 188.3 838 173.7 914.2 164.3C990.3 155 1066.7 151 1142.8 157.2C1219 163.3 1295 179.7 1371.2 177.3C1447.3 175 1523.7 154 1561.8 143.5L1600 133L1600 0L1561.8 0C1523.7 0 1447.3 0 1371.2 0C1295 0 1219 0 1142.8 0C1066.7 0 990.3 0 914.2 0C838 0 762 0 685.8 0C609.7 0 533.3 0 457.2 0C381 0 305 0 228.8 0C152.7 0 76.3 0 38.2 0L0 0Z" fill="#2ac2f1"></path><path d="M0 144L38.2 141.5C76.3 139 152.7 134 228.8 133.2C305 132.3 381 135.7 457.2 133.8C533.3 132 609.7 125 685.8 127.5C762 130 838 142 914.2 145.8C990.3 149.7 1066.7 145.3 1142.8 140.3C1219 135.3 1295 129.7 1371.2 122.7C1447.3 115.7 1523.7 107.3 1561.8 103.2L1600 99L1600 0L1561.8 0C1523.7 0 1447.3 0 1371.2 0C1295 0 1219 0 1142.8 0C1066.7 0 990.3 0 914.2 0C838 0 762 0 685.8 0C609.7 0 533.3 0 457.2 0C381 0 305 0 228.8 0C152.7 0 76.3 0 38.2 0L0 0Z" fill="#258abb"></path><path d="M0 78L38.2 77.2C76.3 76.3 152.7 74.7 228.8 75.3C305 76 381 79 457.2 81C533.3 83 609.7 84 685.8 82.3C762 80.7 838 76.3 914.2 79.3C990.3 82.3 1066.7 92.7 1142.8 99.3C1219 106 1295 109 1371.2 104.2C1447.3 99.3 1523.7 86.7 1561.8 80.3L1600 74L1600 0L1561.8 0C1523.7 0 1447.3 0 1371.2 0C1295 0 1219 0 1142.8 0C1066.7 0 990.3 0 914.2 0C838 0 762 0 685.8 0C609.7 0 533.3 0 457.2 0C381 0 305 0 228.8 0C152.7 0 76.3 0 38.2 0L0 0Z" fill="#1e5783"></path><path d="M0 34L38.2 38.7C76.3 43.3 152.7 52.7 228.8 52.7C305 52.7 381 43.3 457.2 44C533.3 44.7 609.7 55.3 685.8 60.5C762 65.7 838 65.3 914.2 65.5C990.3 65.7 1066.7 66.3 1142.8 65.2C1219 64 1295 61 1371.2 56C1447.3 51 1523.7 44 1561.8 40.5L1600 37L1600 0L1561.8 0C1523.7 0 1447.3 0 1371.2 0C1295 0 1219 0 1142.8 0C1066.7 0 990.3 0 914.2 0C838 0 762 0 685.8 0C609.7 0 533.3 0 457.2 0C381 0 305 0 228.8 0C152.7 0 76.3 0 38.2 0L0 0Z" fill="#10294c"></path></svg>