<svg width="1440" height="416" viewBox="0 0 1440 416" fill="none" xmlns="http://www.w3.org/2000/svg">
<rect width="1440" height="416" fill="#44AFE0"/>
<mask id="mask0_0_1" style="mask-type:alpha" maskUnits="userSpaceOnUse" x="0" y="0" width="1440" height="416">
<rect width="1440" height="416" fill="white"/>
</mask>
<g mask="url(#mask0_0_1)">
<path d="M-246.923 -263.764C-52.339 -308.066 218.654 -69.9199 196.922 11.8559C175.189 93.6317 104.125 76.162 67.2173 132.871C30.3095 189.579 64.4049 218.91 27.9369 271.499C-8.53106 324.089 -50.4901 283.531 -81.5127 347.35C-112.535 411.17 -88.8655 511.786 -88.8655 511.786L-562.395 38.2564C-562.395 38.2564 -441.507 -219.462 -246.923 -263.764Z" fill="#F6B443"/>
<path d="M1666.02 697.863C1471.44 742.165 1200.45 504.02 1222.18 422.244C1243.91 340.468 1314.98 357.938 1351.88 301.229C1388.79 244.521 1354.7 215.19 1391.16 162.6C1427.63 110.011 1469.59 150.569 1500.61 86.7492C1531.64 22.9294 1664.77 79.1185 1664.77 79.1185L1981.5 395.843C1981.5 395.843 1860.61 653.562 1666.02 697.863Z" fill="#ED3833"/>
<mask id="mask1_0_1" style="mask-type:alpha" maskUnits="userSpaceOnUse" x="266" y="312" width="244" height="244">
<path d="M388 556C455.379 556 510 501.379 510 434C510 366.621 455.379 312 388 312C320.621 312 266 366.621 266 434C266 501.379 320.621 556 388 556Z" fill="white"/>
</mask>
<g mask="url(#mask1_0_1)">
<path fill-rule="evenodd" clip-rule="evenodd" d="M326.526 306.443C326.526 307.548 325.631 308.443 324.526 308.443C323.422 308.443 322.526 307.548 322.526 306.443C322.526 305.339 323.422 304.443 324.526 304.443C325.631 304.443 326.526 305.339 326.526 306.443ZM324.526 324.443C325.631 324.443 326.526 323.548 326.526 322.443C326.526 321.339 325.631 320.443 324.526 320.443C323.422 320.443 322.526 321.339 322.526 322.443C322.526 323.548 323.422 324.443 324.526 324.443ZM340.526 324.443C341.631 324.443 342.526 323.548 342.526 322.443C342.526 321.339 341.631 320.443 340.526 320.443C339.422 320.443 338.526 321.339 338.526 322.443C338.526 323.548 339.422 324.443 340.526 324.443ZM358.526 322.443C358.526 323.548 357.631 324.443 356.526 324.443C355.422 324.443 354.526 323.548 354.526 322.443C354.526 321.339 355.422 320.443 356.526 320.443C357.631 320.443 358.526 321.339 358.526 322.443ZM372.526 324.443C373.631 324.443 374.526 323.548 374.526 322.443C374.526 321.339 373.631 320.443 372.526 320.443C371.422 320.443 370.526 321.339 370.526 322.443C370.526 323.548 371.422 324.443 372.526 324.443ZM390.526 322.443C390.526 323.548 389.631 324.443 388.526 324.443C387.422 324.443 386.526 323.548 386.526 322.443C386.526 321.339 387.422 320.443 388.526 320.443C389.631 320.443 390.526 321.339 390.526 322.443ZM404.526 324.443C405.631 324.443 406.526 323.548 406.526 322.443C406.526 321.339 405.631 320.443 404.526 320.443C403.422 320.443 402.526 321.339 402.526 322.443C402.526 323.548 403.422 324.443 404.526 324.443ZM428.526 308.443C429.631 308.443 430.526 307.548 430.526 306.443C430.526 305.339 429.631 304.443 428.526 304.443C427.422 304.443 426.526 305.339 426.526 306.443C426.526 307.548 427.422 308.443 428.526 308.443ZM430.526 322.443C430.526 323.548 429.631 324.443 428.526 324.443C427.422 324.443 426.526 323.548 426.526 322.443C426.526 321.339 427.422 320.443 428.526 320.443C429.631 320.443 430.526 321.339 430.526 322.443ZM446.526 322.443C446.526 323.548 445.631 324.443 444.526 324.443C443.422 324.443 442.526 323.548 442.526 322.443C442.526 321.339 443.422 320.443 444.526 320.443C445.631 320.443 446.526 321.339 446.526 322.443ZM460.526 324.443C461.631 324.443 462.526 323.548 462.526 322.443C462.526 321.339 461.631 320.443 460.526 320.443C459.422 320.443 458.526 321.339 458.526 322.443C458.526 323.548 459.422 324.443 460.526 324.443ZM478.526 322.443C478.526 323.548 477.631 324.443 476.526 324.443C475.422 324.443 474.526 323.548 474.526 322.443C474.526 321.339 475.422 320.443 476.526 320.443C477.631 320.443 478.526 321.339 478.526 322.443ZM492.526 324.443C493.631 324.443 494.526 323.548 494.526 322.443C494.526 321.339 493.631 320.443 492.526 320.443C491.422 320.443 490.526 321.339 490.526 322.443C490.526 323.548 491.422 324.443 492.526 324.443ZM510.526 322.443C510.526 323.548 509.631 324.443 508.526 324.443C507.422 324.443 506.526 323.548 506.526 322.443C506.526 321.339 507.422 320.443 508.526 320.443C509.631 320.443 510.526 321.339 510.526 322.443ZM446.526 306.443C446.526 307.548 445.631 308.443 444.526 308.443C443.422 308.443 442.526 307.548 442.526 306.443C442.526 305.339 443.422 304.443 444.526 304.443C445.631 304.443 446.526 305.339 446.526 306.443ZM460.526 308.443C461.631 308.443 462.526 307.548 462.526 306.443C462.526 305.339 461.631 304.443 460.526 304.443C459.422 304.443 458.526 305.339 458.526 306.443C458.526 307.548 459.422 308.443 460.526 308.443ZM478.526 306.443C478.526 307.548 477.631 308.443 476.526 308.443C475.422 308.443 474.526 307.548 474.526 306.443C474.526 305.339 475.422 304.443 476.526 304.443C477.631 304.443 478.526 305.339 478.526 306.443ZM492.526 308.443C493.631 308.443 494.526 307.548 494.526 306.443C494.526 305.339 493.631 304.443 492.526 304.443C491.422 304.443 490.526 305.339 490.526 306.443C490.526 307.548 491.422 308.443 492.526 308.443ZM510.526 306.443C510.526 307.548 509.631 308.443 508.526 308.443C507.422 308.443 506.526 307.548 506.526 306.443C506.526 305.339 507.422 304.443 508.526 304.443C509.631 304.443 510.526 305.339 510.526 306.443ZM342.526 306.443C342.526 307.548 341.631 308.443 340.526 308.443C339.422 308.443 338.526 307.548 338.526 306.443C338.526 305.339 339.422 304.443 340.526 304.443C341.631 304.443 342.526 305.339 342.526 306.443ZM332.526 340.443C333.631 340.443 334.526 339.548 334.526 338.443C334.526 337.339 333.631 336.443 332.526 336.443C331.422 336.443 330.526 337.339 330.526 338.443C330.526 339.548 331.422 340.443 332.526 340.443ZM334.526 354.443C334.526 355.548 333.631 356.443 332.526 356.443C331.422 356.443 330.526 355.548 330.526 354.443C330.526 353.339 331.422 352.443 332.526 352.443C333.631 352.443 334.526 353.339 334.526 354.443ZM350.526 354.443C350.526 355.548 349.631 356.443 348.526 356.443C347.422 356.443 346.526 355.548 346.526 354.443C346.526 353.339 347.422 352.443 348.526 352.443C349.631 352.443 350.526 353.339 350.526 354.443ZM364.526 356.443C365.631 356.443 366.526 355.548 366.526 354.443C366.526 353.339 365.631 352.443 364.526 352.443C363.422 352.443 362.526 353.339 362.526 354.443C362.526 355.548 363.422 356.443 364.526 356.443ZM382.526 354.443C382.526 355.548 381.631 356.443 380.526 356.443C379.422 356.443 378.526 355.548 378.526 354.443C378.526 353.339 379.422 352.443 380.526 352.443C381.631 352.443 382.526 353.339 382.526 354.443ZM396.526 356.443C397.631 356.443 398.526 355.548 398.526 354.443C398.526 353.339 397.631 352.443 396.526 352.443C395.422 352.443 394.526 353.339 394.526 354.443C394.526 355.548 395.422 356.443 396.526 356.443ZM414.526 354.443C414.526 355.548 413.631 356.443 412.526 356.443C411.422 356.443 410.526 355.548 410.526 354.443C410.526 353.339 411.422 352.443 412.526 352.443C413.631 352.443 414.526 353.339 414.526 354.443ZM350.526 338.443C350.526 339.548 349.631 340.443 348.526 340.443C347.422 340.443 346.526 339.548 346.526 338.443C346.526 337.339 347.422 336.443 348.526 336.443C349.631 336.443 350.526 337.339 350.526 338.443ZM364.526 340.443C365.631 340.443 366.526 339.548 366.526 338.443C366.526 337.339 365.631 336.443 364.526 336.443C363.422 336.443 362.526 337.339 362.526 338.443C362.526 339.548 363.422 340.443 364.526 340.443ZM382.526 338.443C382.526 339.548 381.631 340.443 380.526 340.443C379.422 340.443 378.526 339.548 378.526 338.443C378.526 337.339 379.422 336.443 380.526 336.443C381.631 336.443 382.526 337.339 382.526 338.443ZM396.526 340.443C397.631 340.443 398.526 339.548 398.526 338.443C398.526 337.339 397.631 336.443 396.526 336.443C395.422 336.443 394.526 337.339 394.526 338.443C394.526 339.548 395.422 340.443 396.526 340.443ZM414.526 338.443C414.526 339.548 413.631 340.443 412.526 340.443C411.422 340.443 410.526 339.548 410.526 338.443C410.526 337.339 411.422 336.443 412.526 336.443C413.631 336.443 414.526 337.339 414.526 338.443ZM358.526 306.443C358.526 307.548 357.631 308.443 356.526 308.443C355.422 308.443 354.526 307.548 354.526 306.443C354.526 305.339 355.422 304.443 356.526 304.443C357.631 304.443 358.526 305.339 358.526 306.443ZM428.526 340.443C429.631 340.443 430.526 339.548 430.526 338.443C430.526 337.339 429.631 336.443 428.526 336.443C427.422 336.443 426.526 337.339 426.526 338.443C426.526 339.548 427.422 340.443 428.526 340.443ZM430.526 354.443C430.526 355.548 429.631 356.443 428.526 356.443C427.422 356.443 426.526 355.548 426.526 354.443C426.526 353.339 427.422 352.443 428.526 352.443C429.631 352.443 430.526 353.339 430.526 354.443ZM446.526 354.443C446.526 355.548 445.631 356.443 444.526 356.443C443.422 356.443 442.526 355.548 442.526 354.443C442.526 353.339 443.422 352.443 444.526 352.443C445.631 352.443 446.526 353.339 446.526 354.443ZM460.526 356.443C461.631 356.443 462.526 355.548 462.526 354.443C462.526 353.339 461.631 352.443 460.526 352.443C459.422 352.443 458.526 353.339 458.526 354.443C458.526 355.548 459.422 356.443 460.526 356.443ZM478.526 354.443C478.526 355.548 477.631 356.443 476.526 356.443C475.422 356.443 474.526 355.548 474.526 354.443C474.526 353.339 475.422 352.443 476.526 352.443C477.631 352.443 478.526 353.339 478.526 354.443ZM492.526 356.443C493.631 356.443 494.526 355.548 494.526 354.443C494.526 353.339 493.631 352.443 492.526 352.443C491.422 352.443 490.526 353.339 490.526 354.443C490.526 355.548 491.422 356.443 492.526 356.443ZM510.526 354.443C510.526 355.548 509.631 356.443 508.526 356.443C507.422 356.443 506.526 355.548 506.526 354.443C506.526 353.339 507.422 352.443 508.526 352.443C509.631 352.443 510.526 353.339 510.526 354.443ZM446.526 338.443C446.526 339.548 445.631 340.443 444.526 340.443C443.422 340.443 442.526 339.548 442.526 338.443C442.526 337.339 443.422 336.443 444.526 336.443C445.631 336.443 446.526 337.339 446.526 338.443ZM460.526 340.443C461.631 340.443 462.526 339.548 462.526 338.443C462.526 337.339 461.631 336.443 460.526 336.443C459.422 336.443 458.526 337.339 458.526 338.443C458.526 339.548 459.422 340.443 460.526 340.443ZM478.526 338.443C478.526 339.548 477.631 340.443 476.526 340.443C475.422 340.443 474.526 339.548 474.526 338.443C474.526 337.339 475.422 336.443 476.526 336.443C477.631 336.443 478.526 337.339 478.526 338.443ZM492.526 340.443C493.631 340.443 494.526 339.548 494.526 338.443C494.526 337.339 493.631 336.443 492.526 336.443C491.422 336.443 490.526 337.339 490.526 338.443C490.526 339.548 491.422 340.443 492.526 340.443ZM510.526 338.443C510.526 339.548 509.631 340.443 508.526 340.443C507.422 340.443 506.526 339.548 506.526 338.443C506.526 337.339 507.422 336.443 508.526 336.443C509.631 336.443 510.526 337.339 510.526 338.443ZM374.526 306.443C374.526 307.548 373.631 308.443 372.526 308.443C371.422 308.443 370.526 307.548 370.526 306.443C370.526 305.339 371.422 304.443 372.526 304.443C373.631 304.443 374.526 305.339 374.526 306.443ZM388.526 308.443C389.631 308.443 390.526 307.548 390.526 306.443C390.526 305.339 389.631 304.443 388.526 304.443C387.422 304.443 386.526 305.339 386.526 306.443C386.526 307.548 387.422 308.443 388.526 308.443ZM406.526 306.443C406.526 307.548 405.631 308.443 404.526 308.443C403.422 308.443 402.526 307.548 402.526 306.443C402.526 305.339 403.422 304.443 404.526 304.443C405.631 304.443 406.526 305.339 406.526 306.443Z" fill="white"/>
<path fill-rule="evenodd" clip-rule="evenodd" d="M326.526 370.443C326.526 371.548 325.631 372.443 324.526 372.443C323.422 372.443 322.526 371.548 322.526 370.443C322.526 369.339 323.422 368.443 324.526 368.443C325.631 368.443 326.526 369.339 326.526 370.443ZM324.526 388.443C325.631 388.443 326.526 387.548 326.526 386.443C326.526 385.339 325.631 384.443 324.526 384.443C323.422 384.443 322.526 385.339 322.526 386.443C322.526 387.548 323.422 388.443 324.526 388.443ZM340.526 388.443C341.631 388.443 342.526 387.548 342.526 386.443C342.526 385.339 341.631 384.443 340.526 384.443C339.422 384.443 338.526 385.339 338.526 386.443C338.526 387.548 339.422 388.443 340.526 388.443ZM358.526 386.443C358.526 387.548 357.631 388.443 356.526 388.443C355.422 388.443 354.526 387.548 354.526 386.443C354.526 385.339 355.422 384.443 356.526 384.443C357.631 384.443 358.526 385.339 358.526 386.443ZM372.526 388.443C373.631 388.443 374.526 387.548 374.526 386.443C374.526 385.339 373.631 384.443 372.526 384.443C371.422 384.443 370.526 385.339 370.526 386.443C370.526 387.548 371.422 388.443 372.526 388.443ZM390.526 386.443C390.526 387.548 389.631 388.443 388.526 388.443C387.422 388.443 386.526 387.548 386.526 386.443C386.526 385.339 387.422 384.443 388.526 384.443C389.631 384.443 390.526 385.339 390.526 386.443ZM404.526 388.443C405.631 388.443 406.526 387.548 406.526 386.443C406.526 385.339 405.631 384.443 404.526 384.443C403.422 384.443 402.526 385.339 402.526 386.443C402.526 387.548 403.422 388.443 404.526 388.443ZM428.526 372.443C429.631 372.443 430.526 371.548 430.526 370.443C430.526 369.339 429.631 368.443 428.526 368.443C427.422 368.443 426.526 369.339 426.526 370.443C426.526 371.548 427.422 372.443 428.526 372.443ZM430.526 386.443C430.526 387.548 429.631 388.443 428.526 388.443C427.422 388.443 426.526 387.548 426.526 386.443C426.526 385.339 427.422 384.443 428.526 384.443C429.631 384.443 430.526 385.339 430.526 386.443ZM446.526 386.443C446.526 387.548 445.631 388.443 444.526 388.443C443.422 388.443 442.526 387.548 442.526 386.443C442.526 385.339 443.422 384.443 444.526 384.443C445.631 384.443 446.526 385.339 446.526 386.443ZM460.526 388.443C461.631 388.443 462.526 387.548 462.526 386.443C462.526 385.339 461.631 384.443 460.526 384.443C459.422 384.443 458.526 385.339 458.526 386.443C458.526 387.548 459.422 388.443 460.526 388.443ZM478.526 386.443C478.526 387.548 477.631 388.443 476.526 388.443C475.422 388.443 474.526 387.548 474.526 386.443C474.526 385.339 475.422 384.443 476.526 384.443C477.631 384.443 478.526 385.339 478.526 386.443ZM492.526 388.443C493.631 388.443 494.526 387.548 494.526 386.443C494.526 385.339 493.631 384.443 492.526 384.443C491.422 384.443 490.526 385.339 490.526 386.443C490.526 387.548 491.422 388.443 492.526 388.443ZM510.526 386.443C510.526 387.548 509.631 388.443 508.526 388.443C507.422 388.443 506.526 387.548 506.526 386.443C506.526 385.339 507.422 384.443 508.526 384.443C509.631 384.443 510.526 385.339 510.526 386.443ZM446.526 370.443C446.526 371.548 445.631 372.443 444.526 372.443C443.422 372.443 442.526 371.548 442.526 370.443C442.526 369.339 443.422 368.443 444.526 368.443C445.631 368.443 446.526 369.339 446.526 370.443ZM460.526 372.443C461.631 372.443 462.526 371.548 462.526 370.443C462.526 369.339 461.631 368.443 460.526 368.443C459.422 368.443 458.526 369.339 458.526 370.443C458.526 371.548 459.422 372.443 460.526 372.443ZM478.526 370.443C478.526 371.548 477.631 372.443 476.526 372.443C475.422 372.443 474.526 371.548 474.526 370.443C474.526 369.339 475.422 368.443 476.526 368.443C477.631 368.443 478.526 369.339 478.526 370.443ZM492.526 372.443C493.631 372.443 494.526 371.548 494.526 370.443C494.526 369.339 493.631 368.443 492.526 368.443C491.422 368.443 490.526 369.339 490.526 370.443C490.526 371.548 491.422 372.443 492.526 372.443ZM510.526 370.443C510.526 371.548 509.631 372.443 508.526 372.443C507.422 372.443 506.526 371.548 506.526 370.443C506.526 369.339 507.422 368.443 508.526 368.443C509.631 368.443 510.526 369.339 510.526 370.443ZM342.526 370.443C342.526 371.548 341.631 372.443 340.526 372.443C339.422 372.443 338.526 371.548 338.526 370.443C338.526 369.339 339.422 368.443 340.526 368.443C341.631 368.443 342.526 369.339 342.526 370.443ZM332.526 404.443C333.631 404.443 334.526 403.548 334.526 402.443C334.526 401.339 333.631 400.443 332.526 400.443C331.422 400.443 330.526 401.339 330.526 402.443C330.526 403.548 331.422 404.443 332.526 404.443ZM334.526 418.443C334.526 419.548 333.631 420.443 332.526 420.443C331.422 420.443 330.526 419.548 330.526 418.443C330.526 417.339 331.422 416.443 332.526 416.443C333.631 416.443 334.526 417.339 334.526 418.443ZM350.526 418.443C350.526 419.548 349.631 420.443 348.526 420.443C347.422 420.443 346.526 419.548 346.526 418.443C346.526 417.339 347.422 416.443 348.526 416.443C349.631 416.443 350.526 417.339 350.526 418.443ZM364.526 420.443C365.631 420.443 366.526 419.548 366.526 418.443C366.526 417.339 365.631 416.443 364.526 416.443C363.422 416.443 362.526 417.339 362.526 418.443C362.526 419.548 363.422 420.443 364.526 420.443ZM382.526 418.443C382.526 419.548 381.631 420.443 380.526 420.443C379.422 420.443 378.526 419.548 378.526 418.443C378.526 417.339 379.422 416.443 380.526 416.443C381.631 416.443 382.526 417.339 382.526 418.443ZM396.526 420.443C397.631 420.443 398.526 419.548 398.526 418.443C398.526 417.339 397.631 416.443 396.526 416.443C395.422 416.443 394.526 417.339 394.526 418.443C394.526 419.548 395.422 420.443 396.526 420.443ZM414.526 418.443C414.526 419.548 413.631 420.443 412.526 420.443C411.422 420.443 410.526 419.548 410.526 418.443C410.526 417.339 411.422 416.443 412.526 416.443C413.631 416.443 414.526 417.339 414.526 418.443ZM350.526 402.443C350.526 403.548 349.631 404.443 348.526 404.443C347.422 404.443 346.526 403.548 346.526 402.443C346.526 401.339 347.422 400.443 348.526 400.443C349.631 400.443 350.526 401.339 350.526 402.443ZM364.526 404.443C365.631 404.443 366.526 403.548 366.526 402.443C366.526 401.339 365.631 400.443 364.526 400.443C363.422 400.443 362.526 401.339 362.526 402.443C362.526 403.548 363.422 404.443 364.526 404.443ZM382.526 402.443C382.526 403.548 381.631 404.443 380.526 404.443C379.422 404.443 378.526 403.548 378.526 402.443C378.526 401.339 379.422 400.443 380.526 400.443C381.631 400.443 382.526 401.339 382.526 402.443ZM396.526 404.443C397.631 404.443 398.526 403.548 398.526 402.443C398.526 401.339 397.631 400.443 396.526 400.443C395.422 400.443 394.526 401.339 394.526 402.443C394.526 403.548 395.422 404.443 396.526 404.443ZM414.526 402.443C414.526 403.548 413.631 404.443 412.526 404.443C411.422 404.443 410.526 403.548 410.526 402.443C410.526 401.339 411.422 400.443 412.526 400.443C413.631 400.443 414.526 401.339 414.526 402.443ZM358.526 370.443C358.526 371.548 357.631 372.443 356.526 372.443C355.422 372.443 354.526 371.548 354.526 370.443C354.526 369.339 355.422 368.443 356.526 368.443C357.631 368.443 358.526 369.339 358.526 370.443ZM428.526 404.443C429.631 404.443 430.526 403.548 430.526 402.443C430.526 401.339 429.631 400.443 428.526 400.443C427.422 400.443 426.526 401.339 426.526 402.443C426.526 403.548 427.422 404.443 428.526 404.443ZM430.526 418.443C430.526 419.548 429.631 420.443 428.526 420.443C427.422 420.443 426.526 419.548 426.526 418.443C426.526 417.339 427.422 416.443 428.526 416.443C429.631 416.443 430.526 417.339 430.526 418.443ZM446.526 418.443C446.526 419.548 445.631 420.443 444.526 420.443C443.422 420.443 442.526 419.548 442.526 418.443C442.526 417.339 443.422 416.443 444.526 416.443C445.631 416.443 446.526 417.339 446.526 418.443ZM460.526 420.443C461.631 420.443 462.526 419.548 462.526 418.443C462.526 417.339 461.631 416.443 460.526 416.443C459.422 416.443 458.526 417.339 458.526 418.443C458.526 419.548 459.422 420.443 460.526 420.443ZM478.526 418.443C478.526 419.548 477.631 420.443 476.526 420.443C475.422 420.443 474.526 419.548 474.526 418.443C474.526 417.339 475.422 416.443 476.526 416.443C477.631 416.443 478.526 417.339 478.526 418.443ZM492.526 420.443C493.631 420.443 494.526 419.548 494.526 418.443C494.526 417.339 493.631 416.443 492.526 416.443C491.422 416.443 490.526 417.339 490.526 418.443C490.526 419.548 491.422 420.443 492.526 420.443ZM510.526 418.443C510.526 419.548 509.631 420.443 508.526 420.443C507.422 420.443 506.526 419.548 506.526 418.443C506.526 417.339 507.422 416.443 508.526 416.443C509.631 416.443 510.526 417.339 510.526 418.443ZM446.526 402.443C446.526 403.548 445.631 404.443 444.526 404.443C443.422 404.443 442.526 403.548 442.526 402.443C442.526 401.339 443.422 400.443 444.526 400.443C445.631 400.443 446.526 401.339 446.526 402.443ZM460.526 404.443C461.631 404.443 462.526 403.548 462.526 402.443C462.526 401.339 461.631 400.443 460.526 400.443C459.422 400.443 458.526 401.339 458.526 402.443C458.526 403.548 459.422 404.443 460.526 404.443ZM478.526 402.443C478.526 403.548 477.631 404.443 476.526 404.443C475.422 404.443 474.526 403.548 474.526 402.443C474.526 401.339 475.422 400.443 476.526 400.443C477.631 400.443 478.526 401.339 478.526 402.443ZM492.526 404.443C493.631 404.443 494.526 403.548 494.526 402.443C494.526 401.339 493.631 400.443 492.526 400.443C491.422 400.443 490.526 401.339 490.526 402.443C490.526 403.548 491.422 404.443 492.526 404.443ZM510.526 402.443C510.526 403.548 509.631 404.443 508.526 404.443C507.422 404.443 506.526 403.548 506.526 402.443C506.526 401.339 507.422 400.443 508.526 400.443C509.631 400.443 510.526 401.339 510.526 402.443ZM374.526 370.443C374.526 371.548 373.631 372.443 372.526 372.443C371.422 372.443 370.526 371.548 370.526 370.443C370.526 369.339 371.422 368.443 372.526 368.443C373.631 368.443 374.526 369.339 374.526 370.443ZM388.526 372.443C389.631 372.443 390.526 371.548 390.526 370.443C390.526 369.339 389.631 368.443 388.526 368.443C387.422 368.443 386.526 369.339 386.526 370.443C386.526 371.548 387.422 372.443 388.526 372.443ZM406.526 370.443C406.526 371.548 405.631 372.443 404.526 372.443C403.422 372.443 402.526 371.548 402.526 370.443C402.526 369.339 403.422 368.443 404.526 368.443C405.631 368.443 406.526 369.339 406.526 370.443Z" fill="white"/>
</g>
<path fill-rule="evenodd" clip-rule="evenodd" d="M956 -2C956 -0.895431 955.105 0 954 0C952.895 0 952 -0.895431 952 -2C952 -3.10457 952.895 -4 954 -4C955.105 -4 956 -3.10457 956 -2ZM954 16C955.105 16 956 15.1046 956 14C956 12.8954 955.105 12 954 12C952.895 12 952 12.8954 952 14C952 15.1046 952.895 16 954 16ZM970 16C971.105 16 972 15.1046 972 14C972 12.8954 971.105 12 970 12C968.895 12 968 12.8954 968 14C968 15.1046 968.895 16 970 16ZM988 14C988 15.1046 987.105 16 986 16C984.895 16 984 15.1046 984 14C984 12.8954 984.895 12 986 12C987.105 12 988 12.8954 988 14ZM1002 16C1003.1 16 1004 15.1046 1004 14C1004 12.8954 1003.1 12 1002 12C1000.9 12 1000 12.8954 1000 14C1000 15.1046 1000.9 16 1002 16ZM1020 14C1020 15.1046 1019.1 16 1018 16C1016.9 16 1016 15.1046 1016 14C1016 12.8954 1016.9 12 1018 12C1019.1 12 1020 12.8954 1020 14ZM1034 16C1035.1 16 1036 15.1046 1036 14C1036 12.8954 1035.1 12 1034 12C1032.9 12 1032 12.8954 1032 14C1032 15.1046 1032.9 16 1034 16ZM1058 0C1059.1 0 1060 -0.895431 1060 -2C1060 -3.10457 1059.1 -4 1058 -4C1056.9 -4 1056 -3.10457 1056 -2C1056 -0.895431 1056.9 0 1058 0ZM1060 14C1060 15.1046 1059.1 16 1058 16C1056.9 16 1056 15.1046 1056 14C1056 12.8954 1056.9 12 1058 12C1059.1 12 1060 12.8954 1060 14ZM1076 14C1076 15.1046 1075.1 16 1074 16C1072.9 16 1072 15.1046 1072 14C1072 12.8954 1072.9 12 1074 12C1075.1 12 1076 12.8954 1076 14ZM1090 16C1091.1 16 1092 15.1046 1092 14C1092 12.8954 1091.1 12 1090 12C1088.9 12 1088 12.8954 1088 14C1088 15.1046 1088.9 16 1090 16ZM1108 14C1108 15.1046 1107.1 16 1106 16C1104.9 16 1104 15.1046 1104 14C1104 12.8954 1104.9 12 1106 12C1107.1 12 1108 12.8954 1108 14ZM1122 16C1123.1 16 1124 15.1046 1124 14C1124 12.8954 1123.1 12 1122 12C1120.9 12 1120 12.8954 1120 14C1120 15.1046 1120.9 16 1122 16ZM1140 14C1140 15.1046 1139.1 16 1138 16C1136.9 16 1136 15.1046 1136 14C1136 12.8954 1136.9 12 1138 12C1139.1 12 1140 12.8954 1140 14ZM1076 -2C1076 -0.895431 1075.1 0 1074 0C1072.9 0 1072 -0.895431 1072 -2C1072 -3.10457 1072.9 -4 1074 -4C1075.1 -4 1076 -3.10457 1076 -2ZM1090 0C1091.1 0 1092 -0.895431 1092 -2C1092 -3.10457 1091.1 -4 1090 -4C1088.9 -4 1088 -3.10457 1088 -2C1088 -0.895431 1088.9 0 1090 0ZM1108 -2C1108 -0.895431 1107.1 0 1106 0C1104.9 0 1104 -0.895431 1104 -2C1104 -3.10457 1104.9 -4 1106 -4C1107.1 -4 1108 -3.10457 1108 -2ZM1122 0C1123.1 0 1124 -0.895431 1124 -2C1124 -3.10457 1123.1 -4 1122 -4C1120.9 -4 1120 -3.10457 1120 -2C1120 -0.895431 1120.9 0 1122 0ZM1140 -2C1140 -0.895431 1139.1 0 1138 0C1136.9 0 1136 -0.895431 1136 -2C1136 -3.10457 1136.9 -4 1138 -4C1139.1 -4 1140 -3.10457 1140 -2ZM972 -2C972 -0.895431 971.105 0 970 0C968.895 0 968 -0.895431 968 -2C968 -3.10457 968.895 -4 970 -4C971.105 -4 972 -3.10457 972 -2ZM962 32C963.105 32 964 31.1046 964 30C964 28.8954 963.105 28 962 28C960.895 28 960 28.8954 960 30C960 31.1046 960.895 32 962 32ZM964 46C964 47.1046 963.105 48 962 48C960.895 48 960 47.1046 960 46C960 44.8954 960.895 44 962 44C963.105 44 964 44.8954 964 46ZM980 46C980 47.1046 979.105 48 978 48C976.895 48 976 47.1046 976 46C976 44.8954 976.895 44 978 44C979.105 44 980 44.8954 980 46ZM994 48C995.105 48 996 47.1046 996 46C996 44.8954 995.105 44 994 44C992.895 44 992 44.8954 992 46C992 47.1046 992.895 48 994 48ZM1012 46C1012 47.1046 1011.1 48 1010 48C1008.9 48 1008 47.1046 1008 46C1008 44.8954 1008.9 44 1010 44C1011.1 44 1012 44.8954 1012 46ZM1026 48C1027.1 48 1028 47.1046 1028 46C1028 44.8954 1027.1 44 1026 44C1024.9 44 1024 44.8954 1024 46C1024 47.1046 1024.9 48 1026 48ZM1044 46C1044 47.1046 1043.1 48 1042 48C1040.9 48 1040 47.1046 1040 46C1040 44.8954 1040.9 44 1042 44C1043.1 44 1044 44.8954 1044 46ZM980 30C980 31.1046 979.105 32 978 32C976.895 32 976 31.1046 976 30C976 28.8954 976.895 28 978 28C979.105 28 980 28.8954 980 30ZM994 32C995.105 32 996 31.1046 996 30C996 28.8954 995.105 28 994 28C992.895 28 992 28.8954 992 30C992 31.1046 992.895 32 994 32ZM1012 30C1012 31.1046 1011.1 32 1010 32C1008.9 32 1008 31.1046 1008 30C1008 28.8954 1008.9 28 1010 28C1011.1 28 1012 28.8954 1012 30ZM1026 32C1027.1 32 1028 31.1046 1028 30C1028 28.8954 1027.1 28 1026 28C1024.9 28 1024 28.8954 1024 30C1024 31.1046 1024.9 32 1026 32ZM1044 30C1044 31.1046 1043.1 32 1042 32C1040.9 32 1040 31.1046 1040 30C1040 28.8954 1040.9 28 1042 28C1043.1 28 1044 28.8954 1044 30ZM988 -2C988 -0.895431 987.105 0 986 0C984.895 0 984 -0.895431 984 -2C984 -3.10457 984.895 -4 986 -4C987.105 -4 988 -3.10457 988 -2ZM1058 32C1059.1 32 1060 31.1046 1060 30C1060 28.8954 1059.1 28 1058 28C1056.9 28 1056 28.8954 1056 30C1056 31.1046 1056.9 32 1058 32ZM1060 46C1060 47.1046 1059.1 48 1058 48C1056.9 48 1056 47.1046 1056 46C1056 44.8954 1056.9 44 1058 44C1059.1 44 1060 44.8954 1060 46ZM1076 46C1076 47.1046 1075.1 48 1074 48C1072.9 48 1072 47.1046 1072 46C1072 44.8954 1072.9 44 1074 44C1075.1 44 1076 44.8954 1076 46ZM1090 48C1091.1 48 1092 47.1046 1092 46C1092 44.8954 1091.1 44 1090 44C1088.9 44 1088 44.8954 1088 46C1088 47.1046 1088.9 48 1090 48ZM1108 46C1108 47.1046 1107.1 48 1106 48C1104.9 48 1104 47.1046 1104 46C1104 44.8954 1104.9 44 1106 44C1107.1 44 1108 44.8954 1108 46ZM1122 48C1123.1 48 1124 47.1046 1124 46C1124 44.8954 1123.1 44 1122 44C1120.9 44 1120 44.8954 1120 46C1120 47.1046 1120.9 48 1122 48ZM1140 46C1140 47.1046 1139.1 48 1138 48C1136.9 48 1136 47.1046 1136 46C1136 44.8954 1136.9 44 1138 44C1139.1 44 1140 44.8954 1140 46ZM1076 30C1076 31.1046 1075.1 32 1074 32C1072.9 32 1072 31.1046 1072 30C1072 28.8954 1072.9 28 1074 28C1075.1 28 1076 28.8954 1076 30ZM1090 32C1091.1 32 1092 31.1046 1092 30C1092 28.8954 1091.1 28 1090 28C1088.9 28 1088 28.8954 1088 30C1088 31.1046 1088.9 32 1090 32ZM1108 30C1108 31.1046 1107.1 32 1106 32C1104.9 32 1104 31.1046 1104 30C1104 28.8954 1104.9 28 1106 28C1107.1 28 1108 28.8954 1108 30ZM1122 32C1123.1 32 1124 31.1046 1124 30C1124 28.8954 1123.1 28 1122 28C1120.9 28 1120 28.8954 1120 30C1120 31.1046 1120.9 32 1122 32ZM1140 30C1140 31.1046 1139.1 32 1138 32C1136.9 32 1136 31.1046 1136 30C1136 28.8954 1136.9 28 1138 28C1139.1 28 1140 28.8954 1140 30ZM1004 -2C1004 -0.895431 1003.1 0 1002 0C1000.9 0 1000 -0.895431 1000 -2C1000 -3.10457 1000.9 -4 1002 -4C1003.1 -4 1004 -3.10457 1004 -2ZM1018 0C1019.1 0 1020 -0.895431 1020 -2C1020 -3.10457 1019.1 -4 1018 -4C1016.9 -4 1016 -3.10457 1016 -2C1016 -0.895431 1016.9 0 1018 0ZM1036 -2C1036 -0.895431 1035.1 0 1034 0C1032.9 0 1032 -0.895431 1032 -2C1032 -3.10457 1032.9 -4 1034 -4C1035.1 -4 1036 -3.10457 1036 -2Z" fill="white"/>
</g>
</svg>
