<svg id="visual" viewBox="0 0 1920 1080" width="1920" height="1080" xmlns="http://www.w3.org/2000/svg" xmlns:xlink="http://www.w3.org/1999/xlink" version="1.1"><rect width="1920" height="1080" fill="#fff"></rect><g><g transform="translate(307 559)"><path d="M206.6 -231.4C275.8 -188.2 345.5 -130.7 335.3 -75.8C325.2 -20.8 235.3 31.6 196 125.7C156.6 219.8 167.8 355.7 126.2 389.3C84.7 422.8 -9.6 354 -113.7 315C-217.9 276 -331.9 266.7 -398.6 204.4C-465.4 142 -484.7 26.6 -439.2 -50.6C-393.6 -127.8 -283 -166.7 -199 -207.3C-115 -247.9 -57.5 -290.2 5.6 -296.9C68.7 -303.6 137.4 -274.6 206.6 -231.4Z" fill="#c1e4f4"></path></g></g></svg>