<svg width="715" height="609" viewBox="0 0 715 609" fill="none" xmlns="http://www.w3.org/2000/svg">
<mask id="mask0_0_1" style="mask-type:alpha" maskUnits="userSpaceOnUse" x="32" y="0" width="244" height="244">
<path d="M154 244C221.379 244 276 189.379 276 122C276 54.6213 221.379 0 154 0C86.6213 0 32 54.6213 32 122C32 189.379 86.6213 244 154 244Z" fill="white"/>
</mask>
<g mask="url(#mask0_0_1)">
<path fill-rule="evenodd" clip-rule="evenodd" d="M196.526 -5.55695C196.526 -4.45238 195.631 -3.55695 194.526 -3.55695C193.422 -3.55695 192.526 -4.45238 192.526 -5.55695C192.526 -6.66152 193.422 -7.55695 194.526 -7.55695C195.631 -7.55695 196.526 -6.66152 196.526 -5.55695ZM194.526 12.4431C195.631 12.4431 196.526 11.5476 196.526 10.4431C196.526 9.33848 195.631 8.44305 194.526 8.44305C193.422 8.44305 192.526 9.33848 192.526 10.4431C192.526 11.5476 193.422 12.4431 194.526 12.4431ZM210.526 12.4431C211.631 12.4431 212.526 11.5476 212.526 10.4431C212.526 9.33848 211.631 8.44305 210.526 8.44305C209.422 8.44305 208.526 9.33848 208.526 10.4431C208.526 11.5476 209.422 12.4431 210.526 12.4431ZM228.526 10.4431C228.526 11.5476 227.631 12.4431 226.526 12.4431C225.422 12.4431 224.526 11.5476 224.526 10.4431C224.526 9.33848 225.422 8.44305 226.526 8.44305C227.631 8.44305 228.526 9.33848 228.526 10.4431ZM242.526 12.4431C243.631 12.4431 244.526 11.5476 244.526 10.4431C244.526 9.33848 243.631 8.44305 242.526 8.44305C241.422 8.44305 240.526 9.33848 240.526 10.4431C240.526 11.5476 241.422 12.4431 242.526 12.4431ZM260.526 10.4431C260.526 11.5476 259.631 12.4431 258.526 12.4431C257.422 12.4431 256.526 11.5476 256.526 10.4431C256.526 9.33848 257.422 8.44305 258.526 8.44305C259.631 8.44305 260.526 9.33848 260.526 10.4431ZM274.526 12.4431C275.631 12.4431 276.526 11.5476 276.526 10.4431C276.526 9.33848 275.631 8.44305 274.526 8.44305C273.422 8.44305 272.526 9.33848 272.526 10.4431C272.526 11.5476 273.422 12.4431 274.526 12.4431ZM210.526 -3.55695C211.631 -3.55695 212.526 -4.45238 212.526 -5.55695C212.526 -6.66152 211.631 -7.55695 210.526 -7.55695C209.422 -7.55695 208.526 -6.66152 208.526 -5.55695C208.526 -4.45238 209.422 -3.55695 210.526 -3.55695ZM228.526 -5.55695C228.526 -4.45238 227.631 -3.55695 226.526 -3.55695C225.422 -3.55695 224.526 -4.45238 224.526 -5.55695C224.526 -6.66152 225.422 -7.55695 226.526 -7.55695C227.631 -7.55695 228.526 -6.66152 228.526 -5.55695ZM242.526 -3.55695C243.631 -3.55695 244.526 -4.45238 244.526 -5.55695C244.526 -6.66152 243.631 -7.55695 242.526 -7.55695C241.422 -7.55695 240.526 -6.66152 240.526 -5.55695C240.526 -4.45238 241.422 -3.55695 242.526 -3.55695ZM260.526 -5.55695C260.526 -4.45238 259.631 -3.55695 258.526 -3.55695C257.422 -3.55695 256.526 -4.45238 256.526 -5.55695C256.526 -6.66152 257.422 -7.55695 258.526 -7.55695C259.631 -7.55695 260.526 -6.66152 260.526 -5.55695ZM274.526 -3.55695C275.631 -3.55695 276.526 -4.45238 276.526 -5.55695C276.526 -6.66152 275.631 -7.55695 274.526 -7.55695C273.422 -7.55695 272.526 -6.66152 272.526 -5.55695C272.526 -4.45238 273.422 -3.55695 274.526 -3.55695ZM90.5263 12.4431C91.6309 12.4431 92.5263 11.5476 92.5263 10.4431C92.5263 9.33848 91.6309 8.44305 90.5263 8.44305C89.4218 8.44305 88.5263 9.33848 88.5263 10.4431C88.5263 11.5476 89.4218 12.4431 90.5263 12.4431ZM106.526 12.4431C107.631 12.4431 108.526 11.5476 108.526 10.4431C108.526 9.33848 107.631 8.44305 106.526 8.44305C105.422 8.44305 104.526 9.33848 104.526 10.4431C104.526 11.5476 105.422 12.4431 106.526 12.4431ZM124.526 10.4431C124.526 11.5476 123.631 12.4431 122.526 12.4431C121.422 12.4431 120.526 11.5476 120.526 10.4431C120.526 9.33848 121.422 8.44305 122.526 8.44305C123.631 8.44305 124.526 9.33848 124.526 10.4431ZM138.526 12.4431C139.631 12.4431 140.526 11.5476 140.526 10.4431C140.526 9.33848 139.631 8.44305 138.526 8.44305C137.422 8.44305 136.526 9.33848 136.526 10.4431C136.526 11.5476 137.422 12.4431 138.526 12.4431ZM156.526 10.4431C156.526 11.5476 155.631 12.4431 154.526 12.4431C153.422 12.4431 152.526 11.5476 152.526 10.4431C152.526 9.33848 153.422 8.44305 154.526 8.44305C155.631 8.44305 156.526 9.33848 156.526 10.4431ZM170.526 12.4431C171.631 12.4431 172.526 11.5476 172.526 10.4431C172.526 9.33848 171.631 8.44305 170.526 8.44305C169.422 8.44305 168.526 9.33848 168.526 10.4431C168.526 11.5476 169.422 12.4431 170.526 12.4431ZM90.5263 -3.55695C91.6309 -3.55695 92.5263 -4.45238 92.5263 -5.55695C92.5263 -6.66152 91.6309 -7.55695 90.5263 -7.55695C89.4218 -7.55695 88.5263 -6.66152 88.5263 -5.55695C88.5263 -4.45238 89.4218 -3.55695 90.5263 -3.55695ZM100.526 26.4431C100.526 27.5476 99.6309 28.4431 98.5263 28.4431C97.4218 28.4431 96.5263 27.5476 96.5263 26.4431C96.5263 25.3385 97.4218 24.4431 98.5263 24.4431C99.6309 24.4431 100.526 25.3385 100.526 26.4431ZM98.5263 44.4431C99.6309 44.4431 100.526 43.5476 100.526 42.4431C100.526 41.3385 99.6309 40.4431 98.5263 40.4431C97.4218 40.4431 96.5263 41.3385 96.5263 42.4431C96.5263 43.5476 97.4218 44.4431 98.5263 44.4431ZM114.526 44.4431C115.631 44.4431 116.526 43.5476 116.526 42.4431C116.526 41.3385 115.631 40.4431 114.526 40.4431C113.422 40.4431 112.526 41.3385 112.526 42.4431C112.526 43.5476 113.422 44.4431 114.526 44.4431ZM132.526 42.4431C132.526 43.5476 131.631 44.4431 130.526 44.4431C129.422 44.4431 128.526 43.5476 128.526 42.4431C128.526 41.3385 129.422 40.4431 130.526 40.4431C131.631 40.4431 132.526 41.3385 132.526 42.4431ZM146.526 44.4431C147.631 44.4431 148.526 43.5476 148.526 42.4431C148.526 41.3385 147.631 40.4431 146.526 40.4431C145.422 40.4431 144.526 41.3385 144.526 42.4431C144.526 43.5476 145.422 44.4431 146.526 44.4431ZM164.526 42.4431C164.526 43.5476 163.631 44.4431 162.526 44.4431C161.422 44.4431 160.526 43.5476 160.526 42.4431C160.526 41.3385 161.422 40.4431 162.526 40.4431C163.631 40.4431 164.526 41.3385 164.526 42.4431ZM178.526 44.4431C179.631 44.4431 180.526 43.5476 180.526 42.4431C180.526 41.3385 179.631 40.4431 178.526 40.4431C177.422 40.4431 176.526 41.3385 176.526 42.4431C176.526 43.5476 177.422 44.4431 178.526 44.4431ZM114.526 28.4431C115.631 28.4431 116.526 27.5476 116.526 26.4431C116.526 25.3385 115.631 24.4431 114.526 24.4431C113.422 24.4431 112.526 25.3385 112.526 26.4431C112.526 27.5476 113.422 28.4431 114.526 28.4431ZM132.526 26.4431C132.526 27.5476 131.631 28.4431 130.526 28.4431C129.422 28.4431 128.526 27.5476 128.526 26.4431C128.526 25.3385 129.422 24.4431 130.526 24.4431C131.631 24.4431 132.526 25.3385 132.526 26.4431ZM146.526 28.4431C147.631 28.4431 148.526 27.5476 148.526 26.4431C148.526 25.3385 147.631 24.4431 146.526 24.4431C145.422 24.4431 144.526 25.3385 144.526 26.4431C144.526 27.5476 145.422 28.4431 146.526 28.4431ZM164.526 26.4431C164.526 27.5476 163.631 28.4431 162.526 28.4431C161.422 28.4431 160.526 27.5476 160.526 26.4431C160.526 25.3385 161.422 24.4431 162.526 24.4431C163.631 24.4431 164.526 25.3385 164.526 26.4431ZM178.526 28.4431C179.631 28.4431 180.526 27.5476 180.526 26.4431C180.526 25.3385 179.631 24.4431 178.526 24.4431C177.422 24.4431 176.526 25.3385 176.526 26.4431C176.526 27.5476 177.422 28.4431 178.526 28.4431ZM106.526 -3.55695C107.631 -3.55695 108.526 -4.45238 108.526 -5.55695C108.526 -6.66152 107.631 -7.55695 106.526 -7.55695C105.422 -7.55695 104.526 -6.66152 104.526 -5.55695C104.526 -4.45238 105.422 -3.55695 106.526 -3.55695ZM196.526 26.4431C196.526 27.5476 195.631 28.4431 194.526 28.4431C193.422 28.4431 192.526 27.5476 192.526 26.4431C192.526 25.3385 193.422 24.4431 194.526 24.4431C195.631 24.4431 196.526 25.3385 196.526 26.4431ZM194.526 44.4431C195.631 44.4431 196.526 43.5476 196.526 42.4431C196.526 41.3385 195.631 40.4431 194.526 40.4431C193.422 40.4431 192.526 41.3385 192.526 42.4431C192.526 43.5476 193.422 44.4431 194.526 44.4431ZM210.526 44.4431C211.631 44.4431 212.526 43.5476 212.526 42.4431C212.526 41.3385 211.631 40.4431 210.526 40.4431C209.422 40.4431 208.526 41.3385 208.526 42.4431C208.526 43.5476 209.422 44.4431 210.526 44.4431ZM228.526 42.4431C228.526 43.5476 227.631 44.4431 226.526 44.4431C225.422 44.4431 224.526 43.5476 224.526 42.4431C224.526 41.3385 225.422 40.4431 226.526 40.4431C227.631 40.4431 228.526 41.3385 228.526 42.4431ZM242.526 44.4431C243.631 44.4431 244.526 43.5476 244.526 42.4431C244.526 41.3385 243.631 40.4431 242.526 40.4431C241.422 40.4431 240.526 41.3385 240.526 42.4431C240.526 43.5476 241.422 44.4431 242.526 44.4431ZM260.526 42.4431C260.526 43.5476 259.631 44.4431 258.526 44.4431C257.422 44.4431 256.526 43.5476 256.526 42.4431C256.526 41.3385 257.422 40.4431 258.526 40.4431C259.631 40.4431 260.526 41.3385 260.526 42.4431ZM274.526 44.4431C275.631 44.4431 276.526 43.5476 276.526 42.4431C276.526 41.3385 275.631 40.4431 274.526 40.4431C273.422 40.4431 272.526 41.3385 272.526 42.4431C272.526 43.5476 273.422 44.4431 274.526 44.4431ZM210.526 28.4431C211.631 28.4431 212.526 27.5476 212.526 26.4431C212.526 25.3385 211.631 24.4431 210.526 24.4431C209.422 24.4431 208.526 25.3385 208.526 26.4431C208.526 27.5476 209.422 28.4431 210.526 28.4431ZM228.526 26.4431C228.526 27.5476 227.631 28.4431 226.526 28.4431C225.422 28.4431 224.526 27.5476 224.526 26.4431C224.526 25.3385 225.422 24.4431 226.526 24.4431C227.631 24.4431 228.526 25.3385 228.526 26.4431ZM242.526 28.4431C243.631 28.4431 244.526 27.5476 244.526 26.4431C244.526 25.3385 243.631 24.4431 242.526 24.4431C241.422 24.4431 240.526 25.3385 240.526 26.4431C240.526 27.5476 241.422 28.4431 242.526 28.4431ZM260.526 26.4431C260.526 27.5476 259.631 28.4431 258.526 28.4431C257.422 28.4431 256.526 27.5476 256.526 26.4431C256.526 25.3385 257.422 24.4431 258.526 24.4431C259.631 24.4431 260.526 25.3385 260.526 26.4431ZM274.526 28.4431C275.631 28.4431 276.526 27.5476 276.526 26.4431C276.526 25.3385 275.631 24.4431 274.526 24.4431C273.422 24.4431 272.526 25.3385 272.526 26.4431C272.526 27.5476 273.422 28.4431 274.526 28.4431ZM122.526 -3.55695C123.631 -3.55695 124.526 -4.45238 124.526 -5.55695C124.526 -6.66152 123.631 -7.55695 122.526 -7.55695C121.422 -7.55695 120.526 -6.66152 120.526 -5.55695C120.526 -4.45238 121.422 -3.55695 122.526 -3.55695ZM140.526 -5.55695C140.526 -4.45238 139.631 -3.55695 138.526 -3.55695C137.422 -3.55695 136.526 -4.45238 136.526 -5.55695C136.526 -6.66152 137.422 -7.55695 138.526 -7.55695C139.631 -7.55695 140.526 -6.66152 140.526 -5.55695ZM154.526 -3.55695C155.631 -3.55695 156.526 -4.45238 156.526 -5.55695C156.526 -6.66152 155.631 -7.55695 154.526 -7.55695C153.422 -7.55695 152.526 -6.66152 152.526 -5.55695C152.526 -4.45238 153.422 -3.55695 154.526 -3.55695ZM172.526 -5.55695C172.526 -4.45238 171.631 -3.55695 170.526 -3.55695C169.422 -3.55695 168.526 -4.45238 168.526 -5.55695C168.526 -6.66152 169.422 -7.55695 170.526 -7.55695C171.631 -7.55695 172.526 -6.66152 172.526 -5.55695Z" fill="white"/>
<path fill-rule="evenodd" clip-rule="evenodd" d="M196.526 58.4431C196.526 59.5476 195.631 60.4431 194.526 60.4431C193.422 60.4431 192.526 59.5476 192.526 58.4431C192.526 57.3385 193.422 56.4431 194.526 56.4431C195.631 56.4431 196.526 57.3385 196.526 58.4431ZM194.526 76.4431C195.631 76.4431 196.526 75.5476 196.526 74.4431C196.526 73.3385 195.631 72.4431 194.526 72.4431C193.422 72.4431 192.526 73.3385 192.526 74.4431C192.526 75.5476 193.422 76.4431 194.526 76.4431ZM210.526 76.4431C211.631 76.4431 212.526 75.5476 212.526 74.4431C212.526 73.3385 211.631 72.4431 210.526 72.4431C209.422 72.4431 208.526 73.3385 208.526 74.4431C208.526 75.5476 209.422 76.4431 210.526 76.4431ZM228.526 74.4431C228.526 75.5476 227.631 76.4431 226.526 76.4431C225.422 76.4431 224.526 75.5476 224.526 74.4431C224.526 73.3385 225.422 72.4431 226.526 72.4431C227.631 72.4431 228.526 73.3385 228.526 74.4431ZM242.526 76.4431C243.631 76.4431 244.526 75.5476 244.526 74.4431C244.526 73.3385 243.631 72.4431 242.526 72.4431C241.422 72.4431 240.526 73.3385 240.526 74.4431C240.526 75.5476 241.422 76.4431 242.526 76.4431ZM260.526 74.4431C260.526 75.5476 259.631 76.4431 258.526 76.4431C257.422 76.4431 256.526 75.5476 256.526 74.4431C256.526 73.3385 257.422 72.4431 258.526 72.4431C259.631 72.4431 260.526 73.3385 260.526 74.4431ZM274.526 76.4431C275.631 76.4431 276.526 75.5476 276.526 74.4431C276.526 73.3385 275.631 72.4431 274.526 72.4431C273.422 72.4431 272.526 73.3385 272.526 74.4431C272.526 75.5476 273.422 76.4431 274.526 76.4431ZM210.526 60.4431C211.631 60.4431 212.526 59.5476 212.526 58.4431C212.526 57.3385 211.631 56.4431 210.526 56.4431C209.422 56.4431 208.526 57.3385 208.526 58.4431C208.526 59.5476 209.422 60.4431 210.526 60.4431ZM228.526 58.4431C228.526 59.5476 227.631 60.4431 226.526 60.4431C225.422 60.4431 224.526 59.5476 224.526 58.4431C224.526 57.3385 225.422 56.4431 226.526 56.4431C227.631 56.4431 228.526 57.3385 228.526 58.4431ZM242.526 60.4431C243.631 60.4431 244.526 59.5476 244.526 58.4431C244.526 57.3385 243.631 56.4431 242.526 56.4431C241.422 56.4431 240.526 57.3385 240.526 58.4431C240.526 59.5476 241.422 60.4431 242.526 60.4431ZM260.526 58.4431C260.526 59.5476 259.631 60.4431 258.526 60.4431C257.422 60.4431 256.526 59.5476 256.526 58.4431C256.526 57.3385 257.422 56.4431 258.526 56.4431C259.631 56.4431 260.526 57.3385 260.526 58.4431ZM274.526 60.4431C275.631 60.4431 276.526 59.5476 276.526 58.4431C276.526 57.3385 275.631 56.4431 274.526 56.4431C273.422 56.4431 272.526 57.3385 272.526 58.4431C272.526 59.5476 273.422 60.4431 274.526 60.4431ZM90.5263 76.4431C91.6309 76.4431 92.5263 75.5476 92.5263 74.4431C92.5263 73.3385 91.6309 72.4431 90.5263 72.4431C89.4218 72.4431 88.5263 73.3385 88.5263 74.4431C88.5263 75.5476 89.4218 76.4431 90.5263 76.4431ZM106.526 76.4431C107.631 76.4431 108.526 75.5476 108.526 74.4431C108.526 73.3385 107.631 72.4431 106.526 72.4431C105.422 72.4431 104.526 73.3385 104.526 74.4431C104.526 75.5476 105.422 76.4431 106.526 76.4431ZM124.526 74.4431C124.526 75.5476 123.631 76.4431 122.526 76.4431C121.422 76.4431 120.526 75.5476 120.526 74.4431C120.526 73.3385 121.422 72.4431 122.526 72.4431C123.631 72.4431 124.526 73.3385 124.526 74.4431ZM138.526 76.4431C139.631 76.4431 140.526 75.5476 140.526 74.4431C140.526 73.3385 139.631 72.4431 138.526 72.4431C137.422 72.4431 136.526 73.3385 136.526 74.4431C136.526 75.5476 137.422 76.4431 138.526 76.4431ZM156.526 74.4431C156.526 75.5476 155.631 76.4431 154.526 76.4431C153.422 76.4431 152.526 75.5476 152.526 74.4431C152.526 73.3385 153.422 72.4431 154.526 72.4431C155.631 72.4431 156.526 73.3385 156.526 74.4431ZM170.526 76.4431C171.631 76.4431 172.526 75.5476 172.526 74.4431C172.526 73.3385 171.631 72.4431 170.526 72.4431C169.422 72.4431 168.526 73.3385 168.526 74.4431C168.526 75.5476 169.422 76.4431 170.526 76.4431ZM90.5263 60.4431C91.6309 60.4431 92.5263 59.5476 92.5263 58.4431C92.5263 57.3385 91.6309 56.4431 90.5263 56.4431C89.4218 56.4431 88.5263 57.3385 88.5263 58.4431C88.5263 59.5476 89.4218 60.4431 90.5263 60.4431ZM100.526 90.4431C100.526 91.5476 99.6309 92.4431 98.5263 92.4431C97.4218 92.4431 96.5263 91.5476 96.5263 90.4431C96.5263 89.3385 97.4218 88.4431 98.5263 88.4431C99.6309 88.4431 100.526 89.3385 100.526 90.4431ZM98.5263 108.443C99.6309 108.443 100.526 107.548 100.526 106.443C100.526 105.338 99.6309 104.443 98.5263 104.443C97.4218 104.443 96.5263 105.338 96.5263 106.443C96.5263 107.548 97.4218 108.443 98.5263 108.443ZM114.526 108.443C115.631 108.443 116.526 107.548 116.526 106.443C116.526 105.338 115.631 104.443 114.526 104.443C113.422 104.443 112.526 105.338 112.526 106.443C112.526 107.548 113.422 108.443 114.526 108.443ZM132.526 106.443C132.526 107.548 131.631 108.443 130.526 108.443C129.422 108.443 128.526 107.548 128.526 106.443C128.526 105.338 129.422 104.443 130.526 104.443C131.631 104.443 132.526 105.338 132.526 106.443ZM146.526 108.443C147.631 108.443 148.526 107.548 148.526 106.443C148.526 105.338 147.631 104.443 146.526 104.443C145.422 104.443 144.526 105.338 144.526 106.443C144.526 107.548 145.422 108.443 146.526 108.443ZM164.526 106.443C164.526 107.548 163.631 108.443 162.526 108.443C161.422 108.443 160.526 107.548 160.526 106.443C160.526 105.338 161.422 104.443 162.526 104.443C163.631 104.443 164.526 105.338 164.526 106.443ZM178.526 108.443C179.631 108.443 180.526 107.548 180.526 106.443C180.526 105.338 179.631 104.443 178.526 104.443C177.422 104.443 176.526 105.338 176.526 106.443C176.526 107.548 177.422 108.443 178.526 108.443ZM114.526 92.4431C115.631 92.4431 116.526 91.5476 116.526 90.4431C116.526 89.3385 115.631 88.4431 114.526 88.4431C113.422 88.4431 112.526 89.3385 112.526 90.4431C112.526 91.5476 113.422 92.4431 114.526 92.4431ZM132.526 90.4431C132.526 91.5476 131.631 92.4431 130.526 92.4431C129.422 92.4431 128.526 91.5476 128.526 90.4431C128.526 89.3385 129.422 88.4431 130.526 88.4431C131.631 88.4431 132.526 89.3385 132.526 90.4431ZM146.526 92.4431C147.631 92.4431 148.526 91.5476 148.526 90.4431C148.526 89.3385 147.631 88.4431 146.526 88.4431C145.422 88.4431 144.526 89.3385 144.526 90.4431C144.526 91.5476 145.422 92.4431 146.526 92.4431ZM164.526 90.4431C164.526 91.5476 163.631 92.4431 162.526 92.4431C161.422 92.4431 160.526 91.5476 160.526 90.4431C160.526 89.3385 161.422 88.4431 162.526 88.4431C163.631 88.4431 164.526 89.3385 164.526 90.4431ZM178.526 92.4431C179.631 92.4431 180.526 91.5476 180.526 90.4431C180.526 89.3385 179.631 88.4431 178.526 88.4431C177.422 88.4431 176.526 89.3385 176.526 90.4431C176.526 91.5476 177.422 92.4431 178.526 92.4431ZM106.526 60.4431C107.631 60.4431 108.526 59.5476 108.526 58.4431C108.526 57.3385 107.631 56.4431 106.526 56.4431C105.422 56.4431 104.526 57.3385 104.526 58.4431C104.526 59.5476 105.422 60.4431 106.526 60.4431ZM196.526 90.4431C196.526 91.5476 195.631 92.4431 194.526 92.4431C193.422 92.4431 192.526 91.5476 192.526 90.4431C192.526 89.3385 193.422 88.4431 194.526 88.4431C195.631 88.4431 196.526 89.3385 196.526 90.4431ZM194.526 108.443C195.631 108.443 196.526 107.548 196.526 106.443C196.526 105.338 195.631 104.443 194.526 104.443C193.422 104.443 192.526 105.338 192.526 106.443C192.526 107.548 193.422 108.443 194.526 108.443ZM210.526 108.443C211.631 108.443 212.526 107.548 212.526 106.443C212.526 105.338 211.631 104.443 210.526 104.443C209.422 104.443 208.526 105.338 208.526 106.443C208.526 107.548 209.422 108.443 210.526 108.443ZM228.526 106.443C228.526 107.548 227.631 108.443 226.526 108.443C225.422 108.443 224.526 107.548 224.526 106.443C224.526 105.338 225.422 104.443 226.526 104.443C227.631 104.443 228.526 105.338 228.526 106.443ZM242.526 108.443C243.631 108.443 244.526 107.548 244.526 106.443C244.526 105.338 243.631 104.443 242.526 104.443C241.422 104.443 240.526 105.338 240.526 106.443C240.526 107.548 241.422 108.443 242.526 108.443ZM260.526 106.443C260.526 107.548 259.631 108.443 258.526 108.443C257.422 108.443 256.526 107.548 256.526 106.443C256.526 105.338 257.422 104.443 258.526 104.443C259.631 104.443 260.526 105.338 260.526 106.443ZM274.526 108.443C275.631 108.443 276.526 107.548 276.526 106.443C276.526 105.338 275.631 104.443 274.526 104.443C273.422 104.443 272.526 105.338 272.526 106.443C272.526 107.548 273.422 108.443 274.526 108.443ZM210.526 92.4431C211.631 92.4431 212.526 91.5476 212.526 90.4431C212.526 89.3385 211.631 88.4431 210.526 88.4431C209.422 88.4431 208.526 89.3385 208.526 90.4431C208.526 91.5476 209.422 92.4431 210.526 92.4431ZM228.526 90.4431C228.526 91.5476 227.631 92.4431 226.526 92.4431C225.422 92.4431 224.526 91.5476 224.526 90.4431C224.526 89.3385 225.422 88.4431 226.526 88.4431C227.631 88.4431 228.526 89.3385 228.526 90.4431ZM242.526 92.4431C243.631 92.4431 244.526 91.5476 244.526 90.4431C244.526 89.3385 243.631 88.4431 242.526 88.4431C241.422 88.4431 240.526 89.3385 240.526 90.4431C240.526 91.5476 241.422 92.4431 242.526 92.4431ZM260.526 90.4431C260.526 91.5476 259.631 92.4431 258.526 92.4431C257.422 92.4431 256.526 91.5476 256.526 90.4431C256.526 89.3385 257.422 88.4431 258.526 88.4431C259.631 88.4431 260.526 89.3385 260.526 90.4431ZM274.526 92.4431C275.631 92.4431 276.526 91.5476 276.526 90.4431C276.526 89.3385 275.631 88.4431 274.526 88.4431C273.422 88.4431 272.526 89.3385 272.526 90.4431C272.526 91.5476 273.422 92.4431 274.526 92.4431ZM122.526 60.4431C123.631 60.4431 124.526 59.5476 124.526 58.4431C124.526 57.3385 123.631 56.4431 122.526 56.4431C121.422 56.4431 120.526 57.3385 120.526 58.4431C120.526 59.5476 121.422 60.4431 122.526 60.4431ZM140.526 58.4431C140.526 59.5476 139.631 60.4431 138.526 60.4431C137.422 60.4431 136.526 59.5476 136.526 58.4431C136.526 57.3385 137.422 56.4431 138.526 56.4431C139.631 56.4431 140.526 57.3385 140.526 58.4431ZM154.526 60.4431C155.631 60.4431 156.526 59.5476 156.526 58.4431C156.526 57.3385 155.631 56.4431 154.526 56.4431C153.422 56.4431 152.526 57.3385 152.526 58.4431C152.526 59.5476 153.422 60.4431 154.526 60.4431ZM172.526 58.4431C172.526 59.5476 171.631 60.4431 170.526 60.4431C169.422 60.4431 168.526 59.5476 168.526 58.4431C168.526 57.3385 169.422 56.4431 170.526 56.4431C171.631 56.4431 172.526 57.3385 172.526 58.4431Z" fill="white"/>
</g>
<path fill-rule="evenodd" clip-rule="evenodd" d="M576 547C576 548.105 575.105 549 574 549C572.895 549 572 548.105 572 547C572 545.895 572.895 545 574 545C575.105 545 576 545.895 576 547ZM574 565C575.105 565 576 564.105 576 563C576 561.895 575.105 561 574 561C572.895 561 572 561.895 572 563C572 564.105 572.895 565 574 565ZM590 565C591.105 565 592 564.105 592 563C592 561.895 591.105 561 590 561C588.895 561 588 561.895 588 563C588 564.105 588.895 565 590 565ZM608 563C608 564.105 607.105 565 606 565C604.895 565 604 564.105 604 563C604 561.895 604.895 561 606 561C607.105 561 608 561.895 608 563ZM622 565C623.105 565 624 564.105 624 563C624 561.895 623.105 561 622 561C620.895 561 620 561.895 620 563C620 564.105 620.895 565 622 565ZM640 563C640 564.105 639.105 565 638 565C636.895 565 636 564.105 636 563C636 561.895 636.895 561 638 561C639.105 561 640 561.895 640 563ZM654 565C655.105 565 656 564.105 656 563C656 561.895 655.105 561 654 561C652.895 561 652 561.895 652 563C652 564.105 652.895 565 654 565ZM590 549C591.105 549 592 548.105 592 547C592 545.895 591.105 545 590 545C588.895 545 588 545.895 588 547C588 548.105 588.895 549 590 549ZM608 547C608 548.105 607.105 549 606 549C604.895 549 604 548.105 604 547C604 545.895 604.895 545 606 545C607.105 545 608 545.895 608 547ZM622 549C623.105 549 624 548.105 624 547C624 545.895 623.105 545 622 545C620.895 545 620 545.895 620 547C620 548.105 620.895 549 622 549ZM640 547C640 548.105 639.105 549 638 549C636.895 549 636 548.105 636 547C636 545.895 636.895 545 638 545C639.105 545 640 545.895 640 547ZM654 549C655.105 549 656 548.105 656 547C656 545.895 655.105 545 654 545C652.895 545 652 545.895 652 547C652 548.105 652.895 549 654 549ZM470 565C471.105 565 472 564.105 472 563C472 561.895 471.105 561 470 561C468.895 561 468 561.895 468 563C468 564.105 468.895 565 470 565ZM486 565C487.105 565 488 564.105 488 563C488 561.895 487.105 561 486 561C484.895 561 484 561.895 484 563C484 564.105 484.895 565 486 565ZM504 563C504 564.105 503.105 565 502 565C500.895 565 500 564.105 500 563C500 561.895 500.895 561 502 561C503.105 561 504 561.895 504 563ZM518 565C519.105 565 520 564.105 520 563C520 561.895 519.105 561 518 561C516.895 561 516 561.895 516 563C516 564.105 516.895 565 518 565ZM536 563C536 564.105 535.105 565 534 565C532.895 565 532 564.105 532 563C532 561.895 532.895 561 534 561C535.105 561 536 561.895 536 563ZM550 565C551.105 565 552 564.105 552 563C552 561.895 551.105 561 550 561C548.895 561 548 561.895 548 563C548 564.105 548.895 565 550 565ZM470 549C471.105 549 472 548.105 472 547C472 545.895 471.105 545 470 545C468.895 545 468 545.895 468 547C468 548.105 468.895 549 470 549ZM480 579C480 580.105 479.105 581 478 581C476.895 581 476 580.105 476 579C476 577.895 476.895 577 478 577C479.105 577 480 577.895 480 579ZM478 597C479.105 597 480 596.105 480 595C480 593.895 479.105 593 478 593C476.895 593 476 593.895 476 595C476 596.105 476.895 597 478 597ZM494 597C495.105 597 496 596.105 496 595C496 593.895 495.105 593 494 593C492.895 593 492 593.895 492 595C492 596.105 492.895 597 494 597ZM512 595C512 596.105 511.105 597 510 597C508.895 597 508 596.105 508 595C508 593.895 508.895 593 510 593C511.105 593 512 593.895 512 595ZM526 597C527.105 597 528 596.105 528 595C528 593.895 527.105 593 526 593C524.895 593 524 593.895 524 595C524 596.105 524.895 597 526 597ZM544 595C544 596.105 543.105 597 542 597C540.895 597 540 596.105 540 595C540 593.895 540.895 593 542 593C543.105 593 544 593.895 544 595ZM558 597C559.105 597 560 596.105 560 595C560 593.895 559.105 593 558 593C556.895 593 556 593.895 556 595C556 596.105 556.895 597 558 597ZM494 581C495.105 581 496 580.105 496 579C496 577.895 495.105 577 494 577C492.895 577 492 577.895 492 579C492 580.105 492.895 581 494 581ZM512 579C512 580.105 511.105 581 510 581C508.895 581 508 580.105 508 579C508 577.895 508.895 577 510 577C511.105 577 512 577.895 512 579ZM526 581C527.105 581 528 580.105 528 579C528 577.895 527.105 577 526 577C524.895 577 524 577.895 524 579C524 580.105 524.895 581 526 581ZM544 579C544 580.105 543.105 581 542 581C540.895 581 540 580.105 540 579C540 577.895 540.895 577 542 577C543.105 577 544 577.895 544 579ZM558 581C559.105 581 560 580.105 560 579C560 577.895 559.105 577 558 577C556.895 577 556 577.895 556 579C556 580.105 556.895 581 558 581ZM486 549C487.105 549 488 548.105 488 547C488 545.895 487.105 545 486 545C484.895 545 484 545.895 484 547C484 548.105 484.895 549 486 549ZM576 579C576 580.105 575.105 581 574 581C572.895 581 572 580.105 572 579C572 577.895 572.895 577 574 577C575.105 577 576 577.895 576 579ZM574 597C575.105 597 576 596.105 576 595C576 593.895 575.105 593 574 593C572.895 593 572 593.895 572 595C572 596.105 572.895 597 574 597ZM590 597C591.105 597 592 596.105 592 595C592 593.895 591.105 593 590 593C588.895 593 588 593.895 588 595C588 596.105 588.895 597 590 597ZM608 595C608 596.105 607.105 597 606 597C604.895 597 604 596.105 604 595C604 593.895 604.895 593 606 593C607.105 593 608 593.895 608 595ZM622 597C623.105 597 624 596.105 624 595C624 593.895 623.105 593 622 593C620.895 593 620 593.895 620 595C620 596.105 620.895 597 622 597ZM640 595C640 596.105 639.105 597 638 597C636.895 597 636 596.105 636 595C636 593.895 636.895 593 638 593C639.105 593 640 593.895 640 595ZM654 597C655.105 597 656 596.105 656 595C656 593.895 655.105 593 654 593C652.895 593 652 593.895 652 595C652 596.105 652.895 597 654 597ZM590 581C591.105 581 592 580.105 592 579C592 577.895 591.105 577 590 577C588.895 577 588 577.895 588 579C588 580.105 588.895 581 590 581ZM608 579C608 580.105 607.105 581 606 581C604.895 581 604 580.105 604 579C604 577.895 604.895 577 606 577C607.105 577 608 577.895 608 579ZM622 581C623.105 581 624 580.105 624 579C624 577.895 623.105 577 622 577C620.895 577 620 577.895 620 579C620 580.105 620.895 581 622 581ZM640 579C640 580.105 639.105 581 638 581C636.895 581 636 580.105 636 579C636 577.895 636.895 577 638 577C639.105 577 640 577.895 640 579ZM654 581C655.105 581 656 580.105 656 579C656 577.895 655.105 577 654 577C652.895 577 652 577.895 652 579C652 580.105 652.895 581 654 581ZM502 549C503.105 549 504 548.105 504 547C504 545.895 503.105 545 502 545C500.895 545 500 545.895 500 547C500 548.105 500.895 549 502 549ZM520 547C520 548.105 519.105 549 518 549C516.895 549 516 548.105 516 547C516 545.895 516.895 545 518 545C519.105 545 520 545.895 520 547ZM534 549C535.105 549 536 548.105 536 547C536 545.895 535.105 545 534 545C532.895 545 532 545.895 532 547C532 548.105 532.895 549 534 549ZM552 547C552 548.105 551.105 549 550 549C548.895 549 548 548.105 548 547C548 545.895 548.895 545 550 545C551.105 545 552 545.895 552 547Z" fill="white"/>
<g filter="url(#filter0_d_0_1)">
<rect x="169" y="53" width="506" height="496" rx="30" fill="#F6B443"/>
</g>
<g filter="url(#filter1_d_0_1)">
<path d="M264 116C290.51 116 312 94.5097 312 68C312 41.4903 290.51 20 264 20C237.49 20 216 41.4903 216 68C216 94.5097 237.49 116 264 116Z" fill="white"/>
</g>
<path d="M280 68L255 83V53L280 68Z" fill="#F6B443"/>
<rect x="563" y="101" width="144" height="144" rx="15" fill="#ED3833"/>
<path fill-rule="evenodd" clip-rule="evenodd" d="M669.336 181.79C671.764 177.024 672.997 171.997 673 166.847C673.005 157.854 669.488 149.384 663.095 142.997C656.711 136.618 648.215 133.068 639.172 133.001C631.414 132.944 623.794 135.604 617.707 140.495C611.844 145.205 607.648 151.759 605.859 158.988L598.747 172.714C597.674 174.786 597.762 177.21 598.982 179.199C600.203 181.188 602.331 182.375 604.675 182.375H604.92V191.281C604.92 196.451 609.152 200.656 614.354 200.656H623.63V213H629.919V194.406H614.354C612.62 194.406 611.209 193.004 611.209 191.281V176.125H604.675C604.617 176.125 604.462 176.125 604.351 175.944C604.241 175.764 604.311 175.627 604.338 175.576L604.338 175.576L611.838 160.969C614.777 148.456 626.293 139.25 639.039 139.25C654.258 139.364 666.719 151.743 666.711 166.844C666.709 171.004 665.704 175.083 663.725 178.967C660.433 185.429 658.692 192.776 658.692 200.214V213H664.981V200.214C664.981 193.752 666.487 187.381 669.336 181.79ZM650.342 159.312L654.335 155.344L649.888 150.924L645.895 154.892C644.895 154.304 643.807 153.848 642.655 153.552V148H636.366V153.552C635.214 153.848 634.126 154.304 633.126 154.892L629.133 150.924L624.686 155.344L628.679 159.312C628.087 160.306 627.628 161.386 627.33 162.531H621.587V168.781H627.33C627.628 169.926 628.088 171.007 628.679 172.001L624.686 175.969L629.133 180.388L633.126 176.42C634.126 177.008 635.214 177.465 636.366 177.761V183.312H642.655V177.761C643.807 177.465 644.895 177.008 645.895 176.42L649.888 180.388L654.335 175.969L650.342 172.001C650.934 171.007 651.393 169.926 651.691 168.781H657.434V162.531H651.691C651.393 161.386 650.934 160.306 650.342 159.312ZM639.51 171.75C636.037 171.75 633.221 168.952 633.221 165.5C633.221 162.048 636.037 159.25 639.51 159.25C642.984 159.25 645.8 162.048 645.8 165.5C645.8 168.952 642.984 171.75 639.51 171.75Z" fill="white"/>
<g filter="url(#filter2_d_0_1)">
<g opacity="0.05" filter="url(#filter3_f_0_1)">
<rect x="85.9" y="421.85" width="250.2" height="17.7056" rx="8.85278" fill="black"/>
</g>
<g opacity="0.5" filter="url(#filter4_f_0_1)">
<rect x="92.5" y="421.948" width="239" height="12.5" rx="6.25" fill="black"/>
</g>
<g filter="url(#filter5_di_0_1)">
<rect x="84" y="266" width="252.5" height="165" rx="7.8" fill="white"/>
</g>
<rect x="60" y="429.5" width="300" height="2" fill="white"/>
<path d="M183.5 429.5H237V429.5C237 430.328 236.328 431 235.5 431H185C184.172 431 183.5 430.328 183.5 429.5V429.5Z" fill="url(#paint0_linear_0_1)" fill-opacity="0.5"/>
<path fill-rule="evenodd" clip-rule="evenodd" d="M108 435C67.2121 435 60 431.5 60 431.5L210.5 431L360 431.5C360 431.5 352.807 435 312 435H210.5H108Z" fill="url(#paint1_linear_0_1)"/>
<rect x="96" y="277" width="228" height="142" fill="#C1E4F4"/>
<mask id="mask1_0_1" style="mask-type:alpha" maskUnits="userSpaceOnUse" x="96" y="277" width="228" height="142">
<rect x="96" y="277" width="228" height="142" fill="white"/>
</mask>
<g mask="url(#mask1_0_1)">
<path d="M139.5 330C144.747 330 149 325.747 149 320.5C149 315.253 144.747 311 139.5 311C134.253 311 130 315.253 130 320.5C130 325.747 134.253 330 139.5 330Z" fill="#ADD5E8"/>
<rect x="130" y="339" width="62" height="6" rx="3" fill="#E2F6FF"/>
<rect x="130" y="350" width="70" height="6" rx="3" fill="#E2F6FF"/>
<rect x="130" y="367" width="42" height="14" rx="7" fill="#44AFE0"/>
<rect x="232" y="310" width="61" height="77" rx="8" fill="#ADD5E8"/>
</g>
</g>
<g clip-path="url(#clip0_0_1)">
<g filter="url(#filter6_d_0_1)">
<rect x="490" y="453" width="217" height="48" rx="8" fill="white"/>
</g>
<path fill-rule="evenodd" clip-rule="evenodd" d="M520.743 475.243C523.086 472.9 523.086 469.101 520.743 466.757C518.4 464.414 514.601 464.414 512.257 466.757C509.914 469.101 509.914 472.9 512.257 475.243C514.601 477.586 518.4 477.586 520.743 475.243ZM507.296 481.324C512.766 477.628 520.234 477.628 525.704 481.324C526.515 481.872 527 482.798 527 483.801V489H506V483.801C506 482.798 506.485 481.872 507.296 481.324Z" fill="#44AFE0"/>
<path d="M559.523 469.54C559.57 469.54 559.71 469.543 559.943 469.55C560.183 469.55 560.473 469.55 560.813 469.55C561.153 469.543 561.507 469.543 561.873 469.55C562.24 469.55 562.577 469.553 562.883 469.56C564.657 469.587 566.093 469.877 567.193 470.43C568.3 470.977 569.11 471.773 569.623 472.82C570.143 473.867 570.403 475.153 570.403 476.68C570.403 478.28 570.123 479.623 569.563 480.71C569.01 481.797 568.163 482.617 567.023 483.17C565.89 483.723 564.447 484 562.693 484H559.523V469.54ZM561.423 471.13V482.41H562.693C563.887 482.41 564.913 482.227 565.773 481.86C566.633 481.487 567.293 480.883 567.753 480.05C568.22 479.217 568.453 478.103 568.453 476.71C568.453 475.317 568.227 474.213 567.773 473.4C567.327 472.587 566.68 472.007 565.833 471.66C564.987 471.307 563.967 471.13 562.773 471.13H561.423ZM577.12 484.2C576.167 484.2 575.334 483.997 574.62 483.59C573.907 483.177 573.354 482.573 572.96 481.78C572.567 480.987 572.37 480.017 572.37 478.87C572.37 477.79 572.554 476.843 572.92 476.03C573.287 475.217 573.824 474.587 574.53 474.14C575.244 473.687 576.107 473.46 577.12 473.46C578.074 473.46 578.9 473.67 579.6 474.09C580.307 474.503 580.854 475.113 581.24 475.92C581.627 476.727 581.82 477.71 581.82 478.87C581.82 479.923 581.64 480.85 581.28 481.65C580.927 482.45 580.4 483.077 579.7 483.53C579.007 483.977 578.147 484.2 577.12 484.2ZM577.12 482.74C577.74 482.74 578.264 482.583 578.69 482.27C579.117 481.957 579.44 481.507 579.66 480.92C579.88 480.333 579.99 479.637 579.99 478.83C579.99 478.09 579.894 477.427 579.7 476.84C579.507 476.247 579.197 475.777 578.77 475.43C578.35 475.083 577.8 474.91 577.12 474.91C576.494 474.91 575.964 475.067 575.53 475.38C575.097 475.687 574.767 476.133 574.54 476.72C574.32 477.307 574.21 478.01 574.21 478.83C574.21 479.557 574.31 480.217 574.51 480.81C574.71 481.403 575.024 481.873 575.45 482.22C575.877 482.567 576.434 482.74 577.12 482.74ZM589.113 484V469.54H594.003C595.036 469.54 595.956 469.713 596.763 470.06C597.57 470.407 598.203 470.92 598.663 471.6C599.13 472.28 599.363 473.117 599.363 474.11C599.363 475.07 599.146 475.89 598.713 476.57C598.286 477.25 597.69 477.767 596.923 478.12C596.156 478.473 595.266 478.65 594.253 478.65H591.013V484H589.113ZM591.003 477.09H594.213C595.206 477.09 596.013 476.813 596.633 476.26C597.253 475.707 597.563 474.953 597.563 474C597.563 473.04 597.243 472.313 596.603 471.82C595.963 471.327 595.136 471.08 594.123 471.08H591.003V477.09ZM601.468 484V469.14H603.268V475.18C603.441 474.893 603.674 474.627 603.968 474.38C604.261 474.127 604.618 473.923 605.038 473.77C605.458 473.61 605.944 473.53 606.498 473.53C607.171 473.53 607.781 473.657 608.328 473.91C608.874 474.157 609.308 474.51 609.628 474.97C609.948 475.43 610.108 475.977 610.108 476.61V484H608.258V476.98C608.258 476.36 608.044 475.883 607.618 475.55C607.198 475.21 606.648 475.04 605.968 475.04C605.508 475.04 605.074 475.117 604.668 475.27C604.261 475.417 603.931 475.643 603.678 475.95C603.431 476.25 603.308 476.633 603.308 477.1V484H601.468ZM616.635 484.2C616.095 484.193 615.585 484.117 615.105 483.97C614.631 483.817 614.211 483.593 613.845 483.3C613.478 483.007 613.188 482.643 612.975 482.21C612.768 481.77 612.665 481.26 612.665 480.68V473.66H614.515V480.49C614.515 481.163 614.721 481.71 615.135 482.13C615.555 482.55 616.185 482.76 617.025 482.76C617.785 482.76 618.395 482.563 618.855 482.17C619.321 481.77 619.555 481.177 619.555 480.39V473.66H621.395V484H619.925L619.735 482.02C619.608 482.54 619.391 482.96 619.085 483.28C618.785 483.6 618.421 483.837 617.995 483.99C617.575 484.137 617.121 484.207 616.635 484.2ZM628.439 476.8C628.439 475.213 628.693 473.863 629.199 472.75C629.713 471.637 630.439 470.79 631.379 470.21C632.319 469.63 633.429 469.34 634.709 469.34C635.996 469.34 637.106 469.63 638.039 470.21C638.979 470.79 639.699 471.637 640.199 472.75C640.706 473.863 640.959 475.213 640.959 476.8C640.959 478.293 640.736 479.577 640.289 480.65C639.849 481.717 639.133 482.57 638.139 483.21C638.386 483.757 638.749 484.16 639.229 484.42C639.716 484.687 640.256 484.83 640.849 484.85V486.42C640.376 486.42 639.876 486.36 639.349 486.24C638.823 486.127 638.306 485.897 637.799 485.55C637.299 485.21 636.839 484.7 636.419 484.02C636.086 484.08 635.786 484.123 635.519 484.15C635.253 484.183 634.983 484.2 634.709 484.2C633.436 484.2 632.329 483.917 631.389 483.35C630.449 482.777 629.723 481.94 629.209 480.84C628.696 479.74 628.439 478.393 628.439 476.8ZM630.489 476.84C630.489 478.827 630.856 480.283 631.589 481.21C632.329 482.13 633.369 482.59 634.709 482.59C636.056 482.59 637.096 482.127 637.829 481.2C638.569 480.273 638.939 478.81 638.939 476.81C638.939 474.83 638.573 473.36 637.839 472.4C637.113 471.433 636.069 470.95 634.709 470.95C633.356 470.95 632.313 471.433 631.579 472.4C630.853 473.367 630.489 474.847 630.489 476.84ZM647.631 484.2C647.091 484.193 646.581 484.117 646.101 483.97C645.627 483.817 645.207 483.593 644.841 483.3C644.474 483.007 644.184 482.643 643.971 482.21C643.764 481.77 643.661 481.26 643.661 480.68V473.66H645.511V480.49C645.511 481.163 645.717 481.71 646.131 482.13C646.551 482.55 647.181 482.76 648.021 482.76C648.781 482.76 649.391 482.563 649.851 482.17C650.317 481.77 650.551 481.177 650.551 480.39V473.66H652.391V484H650.921L650.731 482.02C650.604 482.54 650.387 482.96 650.081 483.28C649.781 483.6 649.417 483.837 648.991 483.99C648.571 484.137 648.117 484.207 647.631 484.2ZM658.136 484.2C657.469 484.2 656.879 484.083 656.366 483.85C655.853 483.61 655.449 483.267 655.156 482.82C654.869 482.373 654.726 481.833 654.726 481.2C654.726 480.053 655.126 479.2 655.926 478.64C656.726 478.08 658.009 477.78 659.776 477.74L661.626 477.69V476.88C661.626 476.247 661.436 475.747 661.056 475.38C660.676 475.007 660.086 474.82 659.286 474.82C658.693 474.827 658.169 474.967 657.716 475.24C657.269 475.513 656.979 475.96 656.846 476.58H655.216C655.256 475.907 655.446 475.34 655.786 474.88C656.126 474.413 656.599 474.06 657.206 473.82C657.819 473.58 658.543 473.46 659.376 473.46C660.276 473.46 661.023 473.587 661.616 473.84C662.216 474.093 662.663 474.467 662.956 474.96C663.256 475.453 663.406 476.06 663.406 476.78V484H661.826L661.696 482.06C661.296 482.867 660.786 483.427 660.166 483.74C659.553 484.047 658.876 484.2 658.136 484.2ZM658.696 482.87C659.043 482.87 659.386 482.807 659.726 482.68C660.073 482.553 660.389 482.383 660.676 482.17C660.963 481.95 661.189 481.707 661.356 481.44C661.529 481.167 661.619 480.887 661.626 480.6V478.83L660.086 478.86C659.299 478.873 658.639 478.953 658.106 479.1C657.579 479.247 657.183 479.477 656.916 479.79C656.656 480.103 656.526 480.513 656.526 481.02C656.526 481.6 656.726 482.053 657.126 482.38C657.533 482.707 658.056 482.87 658.696 482.87ZM666.565 484V473.66H668.355V475.16C668.522 474.873 668.752 474.603 669.045 474.35C669.345 474.097 669.705 473.893 670.125 473.74C670.552 473.587 671.042 473.51 671.595 473.51C672.248 473.51 672.848 473.64 673.395 473.9C673.948 474.16 674.388 474.567 674.715 475.12C675.048 475.667 675.215 476.373 675.215 477.24V484H673.365V477.42C673.365 476.613 673.152 476.017 672.725 475.63C672.305 475.237 671.758 475.04 671.085 475.04C670.618 475.04 670.182 475.117 669.775 475.27C669.368 475.417 669.038 475.643 668.785 475.95C668.532 476.25 668.405 476.63 668.405 477.09V484H666.565ZM682.468 487.42C680.841 487.42 679.575 487.183 678.668 486.71C677.768 486.243 677.318 485.573 677.318 484.7C677.318 484.327 677.405 484.01 677.578 483.75C677.751 483.483 677.958 483.263 678.198 483.09C678.438 482.917 678.661 482.78 678.868 482.68C679.075 482.573 679.208 482.497 679.268 482.45C679.155 482.383 679.011 482.3 678.838 482.2C678.671 482.1 678.525 481.967 678.398 481.8C678.271 481.633 678.208 481.417 678.208 481.15C678.208 480.823 678.361 480.523 678.668 480.25C678.975 479.977 679.428 479.773 680.028 479.64C679.421 479.333 678.948 478.927 678.608 478.42C678.268 477.913 678.098 477.363 678.098 476.77C678.098 476.103 678.278 475.523 678.638 475.03C679.005 474.537 679.525 474.16 680.198 473.9C680.871 473.633 681.671 473.5 682.598 473.5C683.271 473.5 683.838 473.58 684.298 473.74C684.758 473.893 685.185 474.113 685.578 474.4C685.685 474.353 685.851 474.283 686.078 474.19C686.311 474.09 686.568 473.983 686.848 473.87C687.128 473.757 687.388 473.65 687.628 473.55C687.875 473.443 688.071 473.363 688.218 473.31L688.208 475.02L686.398 475.36C686.498 475.573 686.578 475.807 686.638 476.06C686.705 476.313 686.738 476.55 686.738 476.77C686.738 477.377 686.578 477.927 686.258 478.42C685.945 478.913 685.468 479.307 684.828 479.6C684.188 479.893 683.388 480.04 682.428 480.04C682.348 480.04 682.245 480.04 682.118 480.04C681.998 480.033 681.895 480.027 681.808 480.02C681.101 480.04 680.615 480.12 680.348 480.26C680.081 480.393 679.948 480.543 679.948 480.71C679.948 480.903 680.098 481.037 680.398 481.11C680.698 481.183 681.208 481.247 681.928 481.3C682.188 481.313 682.508 481.33 682.888 481.35C683.275 481.37 683.701 481.397 684.168 481.43C685.255 481.497 686.091 481.773 686.678 482.26C687.265 482.747 687.558 483.403 687.558 484.23C687.558 485.17 687.138 485.937 686.298 486.53C685.458 487.123 684.181 487.42 682.468 487.42ZM682.798 486.23C683.751 486.23 684.481 486.087 684.988 485.8C685.495 485.513 685.748 485.08 685.748 484.5C685.748 484.087 685.591 483.75 685.278 483.49C684.971 483.223 684.501 483.07 683.868 483.03L680.968 482.84C680.708 482.827 680.438 482.893 680.158 483.04C679.878 483.18 679.638 483.377 679.438 483.63C679.245 483.883 679.148 484.17 679.148 484.49C679.148 485.037 679.445 485.463 680.038 485.77C680.638 486.077 681.558 486.23 682.798 486.23ZM682.478 478.85C683.225 478.85 683.825 478.677 684.278 478.33C684.738 477.983 684.968 477.47 684.968 476.79C684.968 476.09 684.738 475.557 684.278 475.19C683.825 474.823 683.225 474.64 682.478 474.64C681.725 474.64 681.115 474.827 680.648 475.2C680.188 475.567 679.958 476.097 679.958 476.79C679.958 477.443 680.178 477.95 680.618 478.31C681.058 478.67 681.678 478.85 682.478 478.85Z" fill="#333333"/>
</g>
<defs>
<filter id="filter0_d_0_1" x="129" y="33" width="586" height="576" filterUnits="userSpaceOnUse" color-interpolation-filters="sRGB">
<feFlood flood-opacity="0" result="BackgroundImageFix"/>
<feColorMatrix in="SourceAlpha" type="matrix" values="0 0 0 0 0 0 0 0 0 0 0 0 0 0 0 0 0 0 127 0" result="hardAlpha"/>
<feOffset dy="20"/>
<feGaussianBlur stdDeviation="20"/>
<feColorMatrix type="matrix" values="0 0 0 0 0 0 0 0 0 0 0 0 0 0 0 0 0 0 0.1 0"/>
<feBlend mode="normal" in2="BackgroundImageFix" result="effect1_dropShadow_0_1"/>
<feBlend mode="normal" in="SourceGraphic" in2="effect1_dropShadow_0_1" result="shape"/>
</filter>
<filter id="filter1_d_0_1" x="208" y="16" width="112" height="112" filterUnits="userSpaceOnUse" color-interpolation-filters="sRGB">
<feFlood flood-opacity="0" result="BackgroundImageFix"/>
<feColorMatrix in="SourceAlpha" type="matrix" values="0 0 0 0 0 0 0 0 0 0 0 0 0 0 0 0 0 0 127 0" result="hardAlpha"/>
<feOffset dy="4"/>
<feGaussianBlur stdDeviation="4"/>
<feColorMatrix type="matrix" values="0 0 0 0 0 0 0 0 0 0 0 0 0 0 0 0 0 0 0.1 0"/>
<feBlend mode="normal" in2="BackgroundImageFix" result="effect1_dropShadow_0_1"/>
<feBlend mode="normal" in="SourceGraphic" in2="effect1_dropShadow_0_1" result="shape"/>
</filter>
<filter id="filter2_d_0_1" x="0" y="226" width="460" height="333.556" filterUnits="userSpaceOnUse" color-interpolation-filters="sRGB">
<feFlood flood-opacity="0" result="BackgroundImageFix"/>
<feColorMatrix in="SourceAlpha" type="matrix" values="0 0 0 0 0 0 0 0 0 0 0 0 0 0 0 0 0 0 127 0" result="hardAlpha"/>
<feOffset dx="20" dy="40"/>
<feGaussianBlur stdDeviation="40"/>
<feColorMatrix type="matrix" values="0 0 0 0 0 0 0 0 0 0.192909 0 0 0 0 0.28125 0 0 0 0.301489 0"/>
<feBlend mode="normal" in2="BackgroundImageFix" result="effect1_dropShadow_0_1"/>
<feBlend mode="normal" in="SourceGraphic" in2="effect1_dropShadow_0_1" result="shape"/>
</filter>
<filter id="filter3_f_0_1" x="77.7451" y="413.696" width="266.51" height="34.0152" filterUnits="userSpaceOnUse" color-interpolation-filters="sRGB">
<feFlood flood-opacity="0" result="BackgroundImageFix"/>
<feBlend mode="normal" in="SourceGraphic" in2="BackgroundImageFix" result="shape"/>
<feGaussianBlur stdDeviation="4.07742" result="effect1_foregroundBlur_0_1"/>
</filter>
<filter id="filter4_f_0_1" x="78.9086" y="408.357" width="266.183" height="39.6828" filterUnits="userSpaceOnUse" color-interpolation-filters="sRGB">
<feFlood flood-opacity="0" result="BackgroundImageFix"/>
<feBlend mode="normal" in="SourceGraphic" in2="BackgroundImageFix" result="shape"/>
<feGaussianBlur stdDeviation="6.7957" result="effect1_foregroundBlur_0_1"/>
</filter>
<filter id="filter5_di_0_1" x="84" y="266" width="252.5" height="166" filterUnits="userSpaceOnUse" color-interpolation-filters="sRGB">
<feFlood flood-opacity="0" result="BackgroundImageFix"/>
<feColorMatrix in="SourceAlpha" type="matrix" values="0 0 0 0 0 0 0 0 0 0 0 0 0 0 0 0 0 0 127 0" result="hardAlpha"/>
<feOffset dy="1"/>
<feColorMatrix type="matrix" values="0 0 0 0 0 0 0 0 0 0 0 0 0 0 0 0 0 0 0.2 0"/>
<feBlend mode="normal" in2="BackgroundImageFix" result="effect1_dropShadow_0_1"/>
<feBlend mode="normal" in="SourceGraphic" in2="effect1_dropShadow_0_1" result="shape"/>
<feColorMatrix in="SourceAlpha" type="matrix" values="0 0 0 0 0 0 0 0 0 0 0 0 0 0 0 0 0 0 127 0" result="hardAlpha"/>
<feOffset dy="1"/>
<feGaussianBlur stdDeviation="0.5"/>
<feComposite in2="hardAlpha" operator="arithmetic" k2="-1" k3="1"/>
<feColorMatrix type="matrix" values="0 0 0 0 1 0 0 0 0 1 0 0 0 0 1 0 0 0 1 0"/>
<feBlend mode="normal" in2="shape" result="effect2_innerShadow_0_1"/>
</filter>
<filter id="filter6_d_0_1" x="482" y="449" width="233" height="64" filterUnits="userSpaceOnUse" color-interpolation-filters="sRGB">
<feFlood flood-opacity="0" result="BackgroundImageFix"/>
<feColorMatrix in="SourceAlpha" type="matrix" values="0 0 0 0 0 0 0 0 0 0 0 0 0 0 0 0 0 0 127 0" result="hardAlpha"/>
<feOffset dy="4"/>
<feGaussianBlur stdDeviation="4"/>
<feColorMatrix type="matrix" values="0 0 0 0 0 0 0 0 0 0 0 0 0 0 0 0 0 0 0.1 0"/>
<feBlend mode="normal" in2="BackgroundImageFix" result="effect1_dropShadow_0_1"/>
<feBlend mode="normal" in="SourceGraphic" in2="effect1_dropShadow_0_1" result="shape"/>
</filter>
<linearGradient id="paint0_linear_0_1" x1="183.5" y1="431" x2="237" y2="431" gradientUnits="userSpaceOnUse">
<stop stop-color="#BCBDBF"/>
<stop offset="0.0975965" stop-color="#D8D8DF"/>
<stop offset="0.888214" stop-color="#D8D8DF"/>
<stop offset="1" stop-color="#ADAABD"/>
</linearGradient>
<linearGradient id="paint1_linear_0_1" x1="60" y1="431" x2="60" y2="435" gradientUnits="userSpaceOnUse">
<stop stop-color="white"/>
<stop offset="1" stop-color="#CDCBD5"/>
</linearGradient>
<clipPath id="clip0_0_1">
<rect width="217" height="48" fill="white" transform="translate(490 453)"/>
</clipPath>
</defs>
</svg>
