<svg id="visual" viewBox="0 0 1000 540" width="1000" height="540" xmlns="http://www.w3.org/2000/svg" xmlns:xlink="http://www.w3.org/1999/xlink" version="1.1"><path d="M0 388L23.8 381.5C47.7 375 95.3 362 143 364.5C190.7 367 238.3 385 286 393.8C333.7 402.7 381.3 402.3 428.8 396.8C476.3 391.3 523.7 380.7 571.2 378.3C618.7 376 666.3 382 714 385.8C761.7 389.7 809.3 391.3 857 390.7C904.7 390 952.3 387 976.2 385.5L1000 384L1000 541L976.2 541C952.3 541 904.7 541 857 541C809.3 541 761.7 541 714 541C666.3 541 618.7 541 571.2 541C523.7 541 476.3 541 428.8 541C381.3 541 333.7 541 286 541C238.3 541 190.7 541 143 541C95.3 541 47.7 541 23.8 541L0 541Z" fill="#fa7268"></path><path d="M0 415L23.8 416C47.7 417 95.3 419 143 412.5C190.7 406 238.3 391 286 390.7C333.7 390.3 381.3 404.7 428.8 410.5C476.3 416.3 523.7 413.7 571.2 407.8C618.7 402 666.3 393 714 393.5C761.7 394 809.3 404 857 402.2C904.7 400.3 952.3 386.7 976.2 379.8L1000 373L1000 541L976.2 541C952.3 541 904.7 541 857 541C809.3 541 761.7 541 714 541C666.3 541 618.7 541 571.2 541C523.7 541 476.3 541 428.8 541C381.3 541 333.7 541 286 541C238.3 541 190.7 541 143 541C95.3 541 47.7 541 23.8 541L0 541Z" fill="#ef5f67"></path><path d="M0 445L23.8 441.3C47.7 437.7 95.3 430.3 143 432C190.7 433.7 238.3 444.3 286 440.5C333.7 436.7 381.3 418.3 428.8 415.7C476.3 413 523.7 426 571.2 427.3C618.7 428.7 666.3 418.3 714 414.3C761.7 410.3 809.3 412.7 857 418C904.7 423.3 952.3 431.7 976.2 435.8L1000 440L1000 541L976.2 541C952.3 541 904.7 541 857 541C809.3 541 761.7 541 714 541C666.3 541 618.7 541 571.2 541C523.7 541 476.3 541 428.8 541C381.3 541 333.7 541 286 541C238.3 541 190.7 541 143 541C95.3 541 47.7 541 23.8 541L0 541Z" fill="#e34c67"></path><path d="M0 468L23.8 465.2C47.7 462.3 95.3 456.7 143 459.5C190.7 462.3 238.3 473.7 286 471.3C333.7 469 381.3 453 428.8 452.5C476.3 452 523.7 467 571.2 475C618.7 483 666.3 484 714 483.3C761.7 482.7 809.3 480.3 857 479.2C904.7 478 952.3 478 976.2 478L1000 478L1000 541L976.2 541C952.3 541 904.7 541 857 541C809.3 541 761.7 541 714 541C666.3 541 618.7 541 571.2 541C523.7 541 476.3 541 428.8 541C381.3 541 333.7 541 286 541C238.3 541 190.7 541 143 541C95.3 541 47.7 541 23.8 541L0 541Z" fill="#d53867"></path><path d="M0 503L23.8 504.7C47.7 506.3 95.3 509.7 143 507.8C190.7 506 238.3 499 286 499.2C333.7 499.3 381.3 506.7 428.8 510.7C476.3 514.7 523.7 515.3 571.2 513.7C618.7 512 666.3 508 714 504.7C761.7 501.3 809.3 498.7 857 494.2C904.7 489.7 952.3 483.3 976.2 480.2L1000 477L1000 541L976.2 541C952.3 541 904.7 541 857 541C809.3 541 761.7 541 714 541C666.3 541 618.7 541 571.2 541C523.7 541 476.3 541 428.8 541C381.3 541 333.7 541 286 541C238.3 541 190.7 541 143 541C95.3 541 47.7 541 23.8 541L0 541Z" fill="#c62368"></path></svg>