<svg id="visual" viewBox="0 0 1000 540" width="1000" height="540" xmlns="http://www.w3.org/2000/svg" xmlns:xlink="http://www.w3.org/1999/xlink" version="1.1"><rect width="1000" height="540" fill="#10294c"></rect><g><g transform="translate(903 72)"><path d="M87.5 -28.8C99.8 9.6 86.9 55.7 56.3 78.2C25.6 100.6 -22.8 99.3 -54.2 76.1C-85.7 52.9 -100.1 7.9 -88.2 -29.9C-76.4 -67.6 -38.2 -98.1 -0.3 -98C37.6 -97.9 75.1 -67.2 87.5 -28.8Z" stroke="#2ac2f1" fill="none" stroke-width="20"></path></g><g transform="translate(633 485)"><path d="M46.4 -15.7C52.7 4.6 45.5 28.6 29.1 40.7C12.6 52.8 -13 53 -30.3 40.7C-47.6 28.4 -56.6 3.5 -50.1 -16.8C-43.7 -37.2 -21.8 -53.2 -0.9 -52.9C20 -52.6 40 -36 46.4 -15.7Z" stroke="#2ac2f1" fill="none" stroke-width="20"></path></g><g transform="translate(20 97)"><path d="M68.3 -22.9C76.9 4.4 64.4 37.9 39.7 56.2C15.1 74.5 -21.7 77.5 -44.7 61C-67.7 44.4 -76.9 8.2 -67.2 -20.6C-57.4 -49.5 -28.7 -71 0.6 -71.2C29.8 -71.4 59.6 -50.2 68.3 -22.9Z" stroke="#2ac2f1" fill="none" stroke-width="20"></path></g></g></svg>